<svg xmlns="http://www.w3.org/2000/svg" viewBox="0 0 93.6 28.88"><defs><style>.cls-1{fill:#fff;}</style></defs><title>bright-logo</title><g id="Layer_2" data-name="Layer 2"><g id="Layer_1-2" data-name="Layer 1"><path class="cls-1" d="M18.29,16.1c0,4.66-3.06,8.25-7.07,8.25a6.74,6.74,0,0,1-4.66-1.92V24H2V8.45c0-.66-.23-1-.63-1a.54.54,0,0,0-.4.16L.6,7.38,0,3.29l.2-.44A5.17,5.17,0,0,1,3,2.06c2.83,0,4.55,1.57,4.55,5.16V9a6.44,6.44,0,0,1,3.63-1.1C15.25,7.85,18.29,11.44,18.29,16.1Zm-5.72,0C12.56,14.31,11.5,13,10,13S7.41,14.31,7.41,16.1,8.47,19.16,10,19.16,12.56,17.9,12.56,16.1Z"/><path class="cls-1" d="M31.74,9.08l-1,4.31-.34.22A4.37,4.37,0,0,0,28.22,13a2.42,2.42,0,0,0-2.38,2.74V24H20.24V14.25c0-.66-.23-1-.66-1a.52.52,0,0,0-.37.16l-.34-.22-.6-4.09.2-.44a4.88,4.88,0,0,1,2.75-.79,3.37,3.37,0,0,1,3.06,1.92,5.93,5.93,0,0,1,4.29-1.92,5.73,5.73,0,0,1,3,.79Z"/><path class="cls-1" d="M32.51,18.87V8.23h5.61V18c0,.66.23,1,.66,1a.52.52,0,0,0,.37-.16l.34.22.6,4.09-.2.44a5,5,0,0,1-2.78.79C34.26,24.35,32.51,22.46,32.51,18.87Z"/><path class="cls-1" d="M57.8,9.08l-.6,4.09-.34.22a.54.54,0,0,0-.4-.16c-.4,0-.63.35-.63,1v6.52c0,5.41-3.69,8.12-8.64,8.12a9.26,9.26,0,0,1-7.07-2.77V25.7l2.2-3.15h.4a6.45,6.45,0,0,0,4.52,2c1.6,0,3.32-.76,3.32-2.55v-.38a7.62,7.62,0,0,1-3.75,1,7,7,0,0,1-7-7.37,7,7,0,0,1,7-7.37,7.72,7.72,0,0,1,4.84,1.73,3.73,3.73,0,0,1,3.29-1.73,4.88,4.88,0,0,1,2.66.79Zm-7.24,6.14c0-1.79-1.06-3.05-2.58-3.05s-2.58,1.26-2.58,3.05,1.06,3.05,2.58,3.05S50.56,17,50.56,15.22Z"/><path class="cls-1" d="M75.6,23.12l-.2.44a5.16,5.16,0,0,1-2.89.79c-2.83,0-4.49-1.57-4.49-5.16v-4C68,14,67.41,13,66.15,13s-1.86.94-1.86,2.17V24H58.74V8.45c0-.66-.23-1-.63-1a.54.54,0,0,0-.4.16l-.34-.22-.6-4.09.2-.44a5,5,0,0,1,2.78-.79c2.8,0,4.55,1.57,4.55,5.16V8.58a7.41,7.41,0,0,1,3.15-.72c3.63,0,6.18,2.68,6.18,6.93V18c0,.66.23,1,.63,1a.54.54,0,0,0,.4-.16L75,19Z"/><path class="cls-1" d="M87,22.56l-.14.44a6.42,6.42,0,0,1-4,1.35c-2.95,0-5.92-2-5.92-6.52V12.64H74.42V8.23h2.52V3.82l5.12-.69.43.28V8.23h4.06v4.41H82.49v4.44c0,1.45.66,2.08,1.43,2.08a2.14,2.14,0,0,0,1.26-.5l.34.22Z"/><path class="cls-1" d="M93.6,21.25a3,3,0,1,1-3-3A3,3,0,0,1,93.6,21.25Z"/><path class="cls-1" d="M38.5,3.18A3.18,3.18,0,1,1,35.32,0,3.18,3.18,0,0,1,38.5,3.18Z"/></g></g></svg>