<svg xmlns="http://www.w3.org/2000/svg" viewBox="0 0 110.54 126.64"><defs><style>.cls-1{fill:none;stroke:#fff;stroke-linecap:round;stroke-linejoin:round;stroke-width:3.2px;}</style></defs><title>graphic-design</title><g id="Layer_2" data-name="Layer 2"><g id="Layer_1-2" data-name="Layer 1"><path class="cls-1" d="M85.09,66h6c9.88,0,17.89,7.21,17.89,16.1s-8,16.1-17.89,16.1h-6"/><path class="cls-1" d="M85.09,114.31c0,5.92-5.34,10.73-11.93,10.73H19.49c-6.59,0-11.93-4.81-11.93-10.73v-59H85.09Z"/><path class="cls-1" d="M84.38,1.94c6.16,8.45-3,13.08-5.09,17.61C77,24.36,79.23,29,84.57,31,101.87,37.54,107,6.87,84.38,1.94Z"/><line class="cls-1" x1="67.2" y1="55.27" x2="82.76" y2="30.11"/><line class="cls-1" x1="88.91" y1="31.96" x2="79.12" y2="55.27"/><polygon class="cls-1" points="31.41 55.27 13.53 55.27 4.58 39.17 1.6 23.07 16.51 31.12 31.41 55.27"/><line class="cls-1" x1="4.58" y1="39.17" x2="16.51" y2="31.12"/><rect class="cls-1" x="37.38" y="1.6" width="23.85" height="53.67"/><line class="cls-1" x1="61.23" y1="12.33" x2="49.31" y2="12.33"/><line class="cls-1" x1="61.23" y1="23.07" x2="55.27" y2="23.07"/><line class="cls-1" x1="61.23" y1="33.8" x2="49.31" y2="33.8"/><line class="cls-1" x1="61.23" y1="44.53" x2="55.27" y2="44.53"/></g></g></svg>