<svg xmlns="http://www.w3.org/2000/svg" viewBox="0 0 98.31 30.85"><defs><style>.cls-1{fill:#fff;}</style></defs><title>achieve</title><g id="Layer_2" data-name="Layer 2"><g id="Layer_1-2" data-name="Layer 1"><path class="cls-1" d="M61.27,30.1v.46c0,.18.11.17.34.17s.36,0,.36-.17V26.63c0-.5.14-1.88-1.69-1.88a3.4,3.4,0,0,0-2.17.76.27.27,0,0,0-.08.28c0,.11.22.55.42.38a3,3,0,0,1,1.72-.69c.79,0,1,.4,1,1v.79a13.33,13.33,0,0,0-3,.72c-.5.23-.4,1-.4,1.31a1.54,1.54,0,0,0,1.68,1.47A2.77,2.77,0,0,0,61.27,30.1Zm-2.67-.88c0-.16,0-.74.25-.87a10.54,10.54,0,0,1,2.37-.48v1.75a2.65,2.65,0,0,1-1.53.5A1,1,0,0,1,58.59,29.22Z"/><path class="cls-1" d="M66.75,29.64v.91a.14.14,0,0,0,.07.14,1.23,1.23,0,0,0,.26,0,1.13,1.13,0,0,0,.28,0c.07,0,.07-.08.07-.14V25a.14.14,0,0,0-.08-.14,1.12,1.12,0,0,0-.29,0,1.36,1.36,0,0,0-.29,0,.14.14,0,0,0-.08.14v4.22a3,3,0,0,1-2,.86c-.82,0-1-.6-1-1.23V25a.14.14,0,0,0-.08-.14,1.47,1.47,0,0,0-.32,0,1.38,1.38,0,0,0-.29,0,.15.15,0,0,0-.08.14v3.76c0,1.44.53,2.09,1.51,2.09A3.77,3.77,0,0,0,66.75,29.64Z"/><path class="cls-1" d="M72.43,29c0-1.91-2.93-1.66-2.93-2.87,0-.68.79-.79,1.12-.79a2.93,2.93,0,0,1,1.26.37.13.13,0,0,0,.14,0,1.43,1.43,0,0,0,.25-.51.11.11,0,0,0,0-.12,3.69,3.69,0,0,0-1.59-.4c-1,0-1.91.36-1.91,1.55,0,1.65,3,1.37,3,2.91,0,.79-1,1-1.32,1A2.81,2.81,0,0,1,69,29.75a.12.12,0,0,0-.12,0,2.08,2.08,0,0,0-.25.54.11.11,0,0,0,0,.11,3.17,3.17,0,0,0,1.59.4C71.09,30.83,72.43,30.5,72.43,29Z"/><path class="cls-1" d="M76.86,24.84h-2V23.61c0-.14-.15-.15-.39-.15s-.37,0-.37.15v1.23h-.69c-.15,0-.14.21-.14.32s0,.33.12.33h.71v2c0,2,0,3.37,1.34,3.37A2.8,2.8,0,0,0,77,30.18a.1.1,0,0,0,0-.11.86.86,0,0,0-.17-.28s-.1,0-.18,0a1.85,1.85,0,0,1-.84.36c-.73,0-1-.69-1-1.67v-3h2c.13,0,.14-.18.14-.36S77,24.84,76.86,24.84Z"/><path class="cls-1" d="M80.89,24.76c-.91,0-1.54,1-1.94,1.9V24.93s0-.11-.07-.12a1.12,1.12,0,0,0-.57.05c-.05,0-.07.07-.07.14v5.56a.14.14,0,0,0,.07.14,1.84,1.84,0,0,0,.33,0,1.56,1.56,0,0,0,.29,0,.16.16,0,0,0,.08-.14V27.43c.5-1,.94-1.77,1.68-1.77a.76.76,0,0,1,.44.15c.07,0,.18.06.22,0a1.45,1.45,0,0,0,.18-.32,1.43,1.43,0,0,0,.11-.37.24.24,0,0,0-.07-.17A1.22,1.22,0,0,0,80.89,24.76Z"/><path class="cls-1" d="M86.49,30.56V26.63c0-.5.14-1.88-1.69-1.88a3.39,3.39,0,0,0-2.17.76.28.28,0,0,0-.08.28c0,.11.22.55.41.38a3,3,0,0,1,1.73-.69c.79,0,1,.4,1,1v.79a13.32,13.32,0,0,0-3,.72c-.5.23-.4,1-.4,1.31A1.54,1.54,0,0,0,84,30.81a2.79,2.79,0,0,0,1.75-.71v.46c0,.18.1.17.35.17S86.49,30.71,86.49,30.56Zm-.76-.94a2.65,2.65,0,0,1-1.54.5,1,1,0,0,1-1.08-.9c0-.16,0-.74.25-.87a10.53,10.53,0,0,1,2.36-.48Z"/><path class="cls-1" d="M88.2,22.13a.19.19,0,0,0-.08.14v8.29a.15.15,0,0,0,.08.14,1.48,1.48,0,0,0,.29,0,1.87,1.87,0,0,0,.32,0,.15.15,0,0,0,.07-.14V22.27a.17.17,0,0,0-.07-.14,1.55,1.55,0,0,0-.32,0A1.24,1.24,0,0,0,88.2,22.13Z"/><path class="cls-1" d="M91,30.7a.16.16,0,0,0,.09-.14V24.91a.11.11,0,0,0-.09-.13,1.62,1.62,0,0,0-.59,0c-.07,0-.07.11-.07.14v5.62c0,.06,0,.11.06.14a1.88,1.88,0,0,0,.32,0A1.48,1.48,0,0,0,91,30.7Z"/><path class="cls-1" d="M90.69,22.19a.51.51,0,1,0,0,1,.51.51,0,1,0,0-1Z"/><path class="cls-1" d="M96.25,30.72c.25,0,.36,0,.36-.17V26.63c0-.5.14-1.88-1.69-1.88a3.38,3.38,0,0,0-2.17.76.28.28,0,0,0-.08.28c0,.11.22.55.42.38a3,3,0,0,1,1.73-.69c.79,0,1,.4,1,1v.79a13.34,13.34,0,0,0-3,.72c-.5.23-.4,1-.4,1.31a1.53,1.53,0,0,0,1.67,1.47,2.78,2.78,0,0,0,1.74-.71v.46C95.9,30.74,96,30.72,96.25,30.72Zm-.4-1.11a2.67,2.67,0,0,1-1.54.5,1,1,0,0,1-1.08-.9c0-.16,0-.74.25-.87a10.6,10.6,0,0,1,2.37-.48Z"/><path class="cls-1" d="M15.11,19.24l-.32-.1c-.2-.07-.57-.19-.57-1.82V9.5c0-4.31-5-4.64-6.5-4.64C4.62,4.86,1,5.48.49,10.32l-.05.51H5.2l.06-.4c.1-.78.35-1.61,2-1.61S9.4,9.16,9.4,10c0,.15,0,.55-1,.68l-3.59.52C1.76,11.67,0,13.52,0,16.32,0,19.54,2.55,21,5.08,21a6.62,6.62,0,0,0,4.57-1.61,8,8,0,0,0,.26.91l.11.32h5.1ZM6.3,17.35a1.27,1.27,0,0,1-1.39-1.27c0-1.13.75-1.46,2.31-1.71a11.21,11.21,0,0,0,2.18-.48V15C9.4,16.45,7.83,17.35,6.3,17.35Z"/><path class="cls-1" d="M23.27,9a2.06,2.06,0,0,1,2.17,2l.07.38h4.94l0-.5c-.36-4.4-3.93-6-7.15-6-5,0-7.73,3-7.73,8.47,0,1.79.54,7.66,7.47,7.66,5.37,0,7.17-3.81,7.39-6.07l0-.51h-5v.46a2.25,2.25,0,0,1-2.24,2.06c-2.3,0-2.61-2-2.61-4.23C20.54,11.59,20.81,9,23.27,9Z"/><path class="cls-1" d="M41,20.61h4.91V10.15c0-3.22-2.25-5.29-5.73-5.29a6,6,0,0,0-4,1.4V.19H31.3V20.61h4.91V11.86A2.55,2.55,0,0,1,38.89,9c2,0,2.13,1.13,2.13,2.39Z"/><rect class="cls-1" x="47.31" width="4.92" height="4.46"/><rect class="cls-1" x="47.31" y="5.24" width="4.92" height="15.37"/><path class="cls-1" d="M68.63,16l.18-.6H63.75l-.1.33A2.15,2.15,0,0,1,61.53,17a2.67,2.67,0,0,1-3-2.6H68.83V13.27c0-7.59-5.31-8.41-7.59-8.41-7.35,0-7.72,6.47-7.72,7.76,0,5.47,2.77,8.36,8,8.36C65,21,67.7,19.14,68.63,16Zm-10-5a2.39,2.39,0,0,1,2.56-2.11A2.46,2.46,0,0,1,63.72,11Z"/><polygon class="cls-1" points="78.31 20.6 84.14 5.23 78.88 5.23 75.98 14.81 73.15 5.23 67.69 5.23 73.49 20.6 78.31 20.6"/><path class="cls-1" d="M91,21c3.51,0,6.17-1.85,7.11-4.94l.18-.6H93.23l-.1.33A2.15,2.15,0,0,1,91,17a2.67,2.67,0,0,1-3-2.6H98.31V13.27c0-7.59-5.3-8.41-7.58-8.41-7.36,0-7.73,6.47-7.73,7.76C83,18.09,85.77,21,91,21Zm-2.9-10a2.38,2.38,0,0,1,2.56-2.11A2.46,2.46,0,0,1,93.21,11Z"/></g></g></svg>