<svg xmlns="http://www.w3.org/2000/svg" viewBox="0 0 119.63 39.45"><defs><style>.cls-1{fill:#fff;}</style></defs><title>ahr</title><g id="Layer_2" data-name="Layer 2"><g id="Layer_1-2" data-name="Layer 1"><polyline class="cls-1" points="26.97 18.96 31.12 18.96 29.9 24.91 34.81 24.91 36.02 18.96 40.17 18.96 36.96 34.51 32.81 34.51 34.18 27.85 29.27 27.85 27.91 34.51 23.76 34.51 26.97 18.96"/><path class="cls-1" d="M50.57,34.13a14.61,14.61,0,0,1-4,.64c-3.86,0-5.95-2.38-5.95-5.3a6.67,6.67,0,0,1,6.93-6.84c3,0,5.33,1.53,5.33,5.05a11.76,11.76,0,0,1-.3,2.18H44.37c0,1.25.66,2.23,3.11,2.23a9,9,0,0,0,3.62-.8l-.52,2.83M49.51,27.6c0-1.25-.49-2.29-2-2.29a3,3,0,0,0-3,2.29Z"/><path class="cls-1" d="M62,32.88l0,0v0a4.4,4.4,0,0,1-3.89,1.89c-2.48,0-3.86-1.11-3.86-3.36,0-2.85,2.84-4.25,6.37-4.25.79,0,1.59.07,2.15.11a1.77,1.77,0,0,0,0-.47c0-.83-.82-1.49-2.13-1.49a7.25,7.25,0,0,0-3.75.91l.39-2.91a12.38,12.38,0,0,1,4.24-.68c2.75,0,5,1.09,5,3.95,0,1.82-1,4.43-1.46,7.92H61.84L62,32.88m-2.66-.78a3,3,0,0,0,3-2.74,6.37,6.37,0,0,0-1.07-.07c-1.9-.07-3.3.62-3.3,1.65a1.28,1.28,0,0,0,1.35,1.16"/><path class="cls-1" d="M74,22.91l-.45,2.38h.05a4.21,4.21,0,0,1,3.57-2.65,4.52,4.52,0,0,1,1.69.29L78,26.47A2.8,2.8,0,0,0,76.13,26c-1.69,0-2.69,1.47-3,3.18L72,34.51H68l1.79-8.57c.2-1,.37-2,.48-3H74"/><path class="cls-1" d="M81.14,22.91h4l-2.39,11.6h-4l2.39-11.6m1-4.83h4L85.58,21h-4Z"/><path class="cls-1" d="M87.95,25.94c.2-1,.37-2,.48-3h3.7l-.3,1.89h0a5.47,5.47,0,0,1,4.46-2.17c2.33,0,3.6,1.74,3.6,4a11,11,0,0,1-.31,2.45l-1.07,5.41H94.43l1.11-5.43a9.47,9.47,0,0,0,.27-1.76A1.33,1.33,0,0,0,94.25,26c-1.69,0-2.68,1.47-3,3.18l-1.13,5.35h-4l1.8-8.57"/><path class="cls-1" d="M102.72,35.6a6.78,6.78,0,0,0,3.35.91c2.78,0,3.79-1,4.41-4l0,0a4.47,4.47,0,0,1-3.78,2c-3.17,0-4.73-2.21-4.73-5.28,0-3.58,2.46-6.59,6.2-6.59a4,4,0,0,1,4,2.39h0l.5-2.11h3.71c-.15.61-.44,1.54-.73,2.78l-1.78,7.9c-1,4.5-2.61,5.86-7.41,5.86a14,14,0,0,1-4.53-.74l.78-3.11M109,25.71c-2,0-2.88,2-2.88,3.59a2,2,0,0,0,2.08,2.14c2,0,2.93-2.11,2.93-3.63a2,2,0,0,0-2.13-2.1"/><path class="cls-1" d="M32.83,11.53H29.46l-1.17,1.63c-.4.57-.43.71-.43.88,0,.43.43.52.92.6s.58.08.58.31,0,.24-.32.24-1.28-.13-1.72-.13a10.58,10.58,0,0,0-1.62.13c-.12,0-.29,0-.29-.23s.11-.21.29-.24c.73-.12.78-.12,2.09-1.88l3.82-5.18a21.62,21.62,0,0,1,2.51-3,.17.17,0,0,1,.18.15c0,.1.06.6.08.76l.42,7.51c.08,1.51.16,1.56.62,1.57s.52.13.52.25a.25.25,0,0,1-.27.26,13.72,13.72,0,0,0-2-.13,10.75,10.75,0,0,0-1.81.13c-.13,0-.26-.06-.26-.21s.14-.26.41-.3c.81-.09.95-.22.95-.84l-.09-2.31m-3-.6h3l-.13-3.3c0-.34,0-.38-.08-.38a15.11,15.11,0,0,0-1.09,1.4Z"/><path class="cls-1" d="M43,11.42s-2.52,3.91-4.85,3.91a.77.77,0,0,1-.79-.85A10.85,10.85,0,0,1,38,11.94c.18-.52,1.25-3.07,1.25-3.23a.16.16,0,0,0-.16-.16,3.17,3.17,0,0,0-1.5,1.33c-.05.08-.13.17-.21.17s-.15-.1-.15-.18a3.86,3.86,0,0,1,3.13-2.2c.37,0,.6.15.6.53,0,.66-2,5.26-2,5.85a.27.27,0,0,0,.31.29c.69,0,2.15-1.35,3.38-3.09a8.47,8.47,0,0,0,1.37-3c.09-.31.16-.53.5-.56l1,0c.1,0,.26,0,.26.2s-1.94,5.2-1.94,6.16c0,.09,0,.21.16.21s.8-.25,1.65-1.46c.1-.14.15-.15.18-.15a.17.17,0,0,1,.16.16c0,.68-2,2.54-3.28,2.54a.61.61,0,0,1-.6-.64A21.59,21.59,0,0,1,43,11.45l0,0"/><path class="cls-1" d="M46.35,13.87c0-.25.16-.89.54-.89s.55.28,1.06.94,1,.93,1.26.93c.6,0,.93-.66.93-1.09S49.85,12.89,49,12s-1.31-1.5-1.31-2a2.79,2.79,0,0,1,3-2.33c1.09,0,2,.35,2,.93,0,.27-.12,1-.52,1s-.6-.29-.85-.54a2.21,2.21,0,0,0-1.53-.81c-.12,0-.75.06-.75.67s.49,1.14,1.8,2.47A2.4,2.4,0,0,1,51.71,13c0,1.19-1.38,2.26-3,2.26-.31,0-2.31,0-2.31-1.43"/><path class="cls-1" d="M56.57,8.39c-.56,1.71-.57,1.77-1.32,4.22a7.15,7.15,0,0,0-.32,1.3c0,.21.1.29.19.29a3.55,3.55,0,0,0,1.58-1.43c0-.1.12-.18.21-.18a.19.19,0,0,1,.18.18c0,.48-1.77,2.53-3.09,2.53-.34,0-.66-.26-.66-.94A5.13,5.13,0,0,1,53.54,13c.27-1.12.94-3.09,1.47-4.65H54c-.16,0-.34,0-.34-.13,0-.4.31-.4.74-.4h.78a9.69,9.69,0,0,1,.73-1.92,5,5,0,0,1,1-.08c.21,0,.36,0,.36.2A7.45,7.45,0,0,1,57,7l-.21.59a2,2,0,0,1-.08.25h1.69c.13,0,.13.13.13.16,0,.31-.28.37-.44.37H56.57"/><path class="cls-1" d="M60.55,12.3c.1-.24.24-.54.33-.72l.47-1c.1-.21,1.48-2.95,2.75-2.95a.83.83,0,0,1,.85.91c0,.46-.26,1.25-.91,1.25a.55.55,0,0,1-.6-.52l0-.27c0-.2-.1-.25-.16-.25-1,0-3.32,5.91-3.5,6.19s-.3.13-.68.13c-.63,0-.69,0-.69-.23s1.7-5.19,1.7-5.93c0,0,0-.26-.16-.26s-.8.62-1.17,1.19c-.13.19-.32.52-.46.52a.18.18,0,0,1-.16-.18c0-.36,1.56-2.56,2.78-2.56.35,0,.56.22.56.87a20.34,20.34,0,0,1-1,3.74l0,0"/><path class="cls-1" d="M72.46,7.65c.11,0,.34,0,.34.18S70.87,13.29,70.87,14c0,.13,0,.28.17.28.39,0,1.26-1.15,1.44-1.5.07-.09.13-.14.19-.14a.15.15,0,0,1,.15.14c0,.41-1.54,2.54-3,2.54-.18,0-.65,0-.65-.68a8.07,8.07,0,0,1,.44-1.77l.33-1a3.67,3.67,0,0,0,.13-.41l0,0a4.48,4.48,0,0,1-.38.53c-1.15,1.49-2.59,3.36-4.08,3.36-.9,0-1.34-.78-1.34-1.69,0-3.1,3.47-5.82,5.66-5.82a2,2,0,0,1,1,.21,1.49,1.49,0,0,0,.26.11c.06,0,.13-.15.15-.21.08-.23.18-.29.65-.29h.53m-5.89,6.53c1.21,0,4.34-4,4.34-5.28,0-.65-.71-.7-.91-.7-2.13,0-4.07,3.63-4.07,5.13,0,.21,0,.84.64.84"/><path class="cls-1" d="M75.91,11.63a18,18,0,0,0-.7,2.41c0,.11,0,.22.18.22.4,0,1.33-1.13,1.56-1.5,0-.06.08-.11.14-.11a.18.18,0,0,1,.18.16c0,.49-1.77,2.51-2.9,2.51-.5,0-.78-.34-.78-.91a10.74,10.74,0,0,1,.6-2.45l1.86-5.43a2.17,2.17,0,0,0,.17-.68c0-.36-.44-.39-.5-.39-.56,0-.62,0-.62-.18s.27-.27.72-.27a4.53,4.53,0,0,0,1.8-.36A1.82,1.82,0,0,1,78,4.52c.07,0,.21,0,.21.18a.8.8,0,0,1-.07.24l-2.25,6.7"/><path class="cls-1" d="M80.18,14c0,.1,0,.2.14.2.39,0,1.36-1.16,1.51-1.39,0-.05.09-.15.18-.15a.19.19,0,0,1,.17.18c0,.41-1.81,2.44-3,2.44-.53,0-.69-.28-.69-.77,0-1,1.13-3.74,1.67-5a2.38,2.38,0,0,0,.26-.75s0-.17-.13-.17c-.34,0-1.67,1.35-1.71,1.35a.18.18,0,0,1-.16-.18,4.49,4.49,0,0,1,3.13-2.18c.48,0,.51.41.51.66,0,.87-1.87,4.87-1.87,5.72M82.36,7a.74.74,0,0,1-.68-.83c0-.56.46-1.24,1-1.24s.67.68.67.83a1.21,1.21,0,0,1-1,1.24"/><path class="cls-1" d="M91.29,7.65c.11,0,.34,0,.34.18S89.7,13.29,89.7,14c0,.13,0,.28.16.28.39,0,1.26-1.15,1.44-1.5.06-.09.13-.14.19-.14a.15.15,0,0,1,.15.14c0,.41-1.54,2.54-3,2.54-.17,0-.65,0-.65-.68a7.65,7.65,0,0,1,.44-1.77l.32-1,.13-.41,0,0a4.85,4.85,0,0,1-.37.53c-1.15,1.49-2.59,3.36-4.08,3.36-.91,0-1.35-.78-1.35-1.69,0-3.1,3.47-5.82,5.65-5.82a2,2,0,0,1,1,.21,1.35,1.35,0,0,0,.26.11c.07,0,.13-.15.15-.21.08-.23.18-.29.65-.29h.54m-5.9,6.53c1.21,0,4.34-4,4.34-5.28,0-.65-.72-.7-.91-.7-2.14,0-4.07,3.63-4.07,5.13,0,.21,0,.84.63.84"/><path class="cls-1" d="M95.34,11.79c1.05-1.73,2.55-4.14,4.52-4.14a1,1,0,0,1,1.17,1,7.15,7.15,0,0,1-.68,2.33,14,14,0,0,0-1,2.94c0,.17.08.3.19.3s.87-.57,1.33-1.22c.24-.32.25-.37.35-.37a.19.19,0,0,1,.16.19c0,.33-1.57,2.51-3,2.51-.63,0-.73-.41-.73-.78,0-.94,1.78-5.17,1.78-5.7,0-.38-.26-.42-.37-.42-1.18,0-3.48,3-4.58,6.09-.21.6-.33.6-1.31.6-.15,0-.38,0-.38-.21s1.86-5.07,1.86-6c0-.21-.13-.23-.17-.23-.35,0-1.5,1.48-1.63,1.48a.21.21,0,0,1-.16-.2c0-.24,1.5-2.3,2.93-2.3.26,0,.57.09.57.8a11,11,0,0,1-.7,2.69l-.21.62,0,0"/><path class="cls-1" d="M118.34,20.57a1,1,0,1,1,1-1,1,1,0,0,1-1,1m0,.25a1.29,1.29,0,1,0-1.29-1.3,1.3,1.3,0,0,0,1.29,1.3m-.5-.57h.28v-.63h.16l.38.63h.28l-.39-.64a.37.37,0,0,0,.39-.4c0-.3-.19-.43-.55-.43h-.54Zm.28-1.26h.24c.14,0,.3,0,.3.2s-.14.23-.3.23h-.24Z"/><path class="cls-1" d="M9,12.89s4.2-1.41,1.23-4.22c0,0-2.6-2.18-4,2.39A2.11,2.11,0,0,0,9,12.89Zm-.47-2.83c0-.11.23-.16.23-.16s.12,0,.12,0,.25.2.25.2a.1.1,0,0,1,.05,0l0,0a1.81,1.81,0,0,1-.36.1.27.27,0,0,0-.13.07.16.16,0,0,1,0,.05c-.07.05-.11,0-.11,0a.5.5,0,0,1-.09-.19A.27.27,0,0,0,8.57,10.06Zm-1-.11c.19-.09.23.17.23.17.16,0,.15.05.15.05a.47.47,0,0,1,0,.24c0,.09,0,.57,0,.57s0,.36,0,.36c-.05.2.24.3.24.3s.08,0,.06,0l0,0a.61.61,0,0,1-.56,0c-.11-.14-.09-.23-.09-.23,0-.17.16-.65.16-.65s.06-.33.06-.33c0-.16-.08-.17-.08-.17a.32.32,0,0,0-.16,0l-.24.08c-.07,0-.07,0-.07,0L7,10.25C7.07,10.16,7.52,10,7.52,10Z"/><path class="cls-1" d="M5.92,34.71c.19-.5.4-1.2.4-1.2A3,3,0,0,1,7.25,32s1.2-1,2.67-4.89a7.5,7.5,0,0,1,1.24-2.21s1.66-1.64,1.9.82a9,9,0,0,0,1,3.92s1,1.51,1,5l1.83,0a.91.91,0,0,1,0-.65A44.88,44.88,0,0,0,15.33,22.2s-.93-4.51-1-5.68c0,0-.89-3.3,5.3-6.48,0,0,2.28-.82.12-1a10.36,10.36,0,0,0-4.37,1.51s-2.86,1.71-3.33,2.1a21.36,21.36,0,0,1-7,2.91s-3.75.73-5,1v1.43c.45,0,2.67-.26,4.58-.65,0,0,3.13-.93,3.67,1.17a8,8,0,0,1-.27,5.62,6.57,6.57,0,0,0-.5,1.16s-1.4,3.91-1.86,5.71a4.56,4.56,0,0,1-.54,1.28s-.46.93-.55,1.17c0,0-.38.71-.66,1.2Z"/><path class="cls-1" d="M0,18.06H.09V16.62l-.09,0"/><path class="cls-1" d="M14.19,8.38l-.94.32A3.39,3.39,0,0,0,9,6.56l-.32-.95A4.38,4.38,0,0,1,14.19,8.38Z"/><path class="cls-1" d="M17.42,7.08l-.94.32A7,7,0,0,0,7.83,3L7.51,2A8,8,0,0,1,17.42,7.08Z"/><path class="cls-1" d="M19.1,6.5l-.94.31A8.77,8.77,0,0,0,7.34,1.4L7,.46A9.76,9.76,0,0,1,19.1,6.5Z"/><path class="cls-1" d="M15.84,7.71,14.9,8A5.24,5.24,0,0,0,8.36,4.75L8,3.81A6.23,6.23,0,0,1,15.84,7.71Z"/></g></g></svg>