<svg xmlns="http://www.w3.org/2000/svg" viewBox="0 0 70.81 76.53"><defs><style>.cls-1{fill:#fff;}</style></defs><title>nsw-government</title><g id="Layer_2" data-name="Layer 2"><g id="Layer_1-2" data-name="Layer 1"><path class="cls-1" d="M19.09,59.15,7.66,45.74H2.82v21H7.54V53.35l11.4,13.39H23.8v-21H19.09ZM64.36,45.74,61.23,59.18,57.95,45.74H53.43L50.09,59l-3-13.29H42.12l5.46,21h4.86l3.21-13.29,3.26,13.29h4.77l0-.18,5.5-20.82Z"/><path class="cls-1" d="M2.32,73.18v0A3.31,3.31,0,0,1,5.67,69.8a3.51,3.51,0,0,1,2.5.88l-.72.86a2.54,2.54,0,0,0-1.82-.7,2.2,2.2,0,0,0-2.11,2.29v0a2.17,2.17,0,0,0,2.21,2.32A2.64,2.64,0,0,0,7.3,75V73.78H5.63v-1H8.4v2.73a4.14,4.14,0,0,1-2.71,1,3.23,3.23,0,0,1-3.37-3.34"/><path class="cls-1" d="M9.09,73.18v0A3.33,3.33,0,0,1,12.5,69.8a3.3,3.3,0,0,1,3.39,3.34v0a3.33,3.33,0,0,1-3.41,3.36,3.3,3.3,0,0,1-3.39-3.34m5.6,0v0a2.23,2.23,0,0,0-2.21-2.31,2.19,2.19,0,0,0-2.19,2.29v0a2.23,2.23,0,0,0,2.21,2.31,2.2,2.2,0,0,0,2.19-2.29"/><polygon class="cls-1" points="15.81 69.91 17.07 69.91 19.03 74.91 20.98 69.91 22.22 69.91 19.51 76.46 18.51 76.46 15.81 69.91"/><polygon class="cls-1" points="22.98 69.91 27.81 69.91 27.81 70.94 24.13 70.94 24.13 72.62 27.39 72.62 27.39 73.65 24.13 73.65 24.13 75.39 27.85 75.39 27.85 76.41 22.98 76.41 22.98 69.91"/><path class="cls-1" d="M29,69.91h2.9a2.62,2.62,0,0,1,1.88.65,2,2,0,0,1,.54,1.4v0a2,2,0,0,1-1.55,2l1.75,2.46H33.13l-1.6-2.26H30.1v2.26H29Zm2.81,3.22c.82,0,1.34-.43,1.34-1.09v0c0-.69-.5-1.08-1.35-1.08H30.1v2.18Z"/><polygon class="cls-1" points="35.28 69.91 36.34 69.91 39.82 74.41 39.82 69.91 40.94 69.91 40.94 76.41 39.99 76.41 36.4 71.79 36.4 76.41 35.28 76.41 35.28 69.91"/><polygon class="cls-1" points="42.1 69.91 43.32 69.91 45.3 72.99 47.28 69.91 48.49 69.91 48.49 76.41 47.35 76.41 47.35 71.75 45.3 74.81 45.26 74.81 43.23 71.77 43.23 76.41 42.1 76.41 42.1 69.91"/><polygon class="cls-1" points="49.58 69.91 54.4 69.91 54.4 70.94 50.73 70.94 50.73 72.62 53.98 72.62 53.98 73.65 50.73 73.65 50.73 75.39 54.45 75.39 54.45 76.41 49.58 76.41 49.58 69.91"/><polygon class="cls-1" points="55.57 69.91 56.63 69.91 60.12 74.41 60.12 69.91 61.24 69.91 61.24 76.41 60.28 76.41 56.7 71.79 56.7 76.41 55.57 76.41 55.57 69.91"/><polygon class="cls-1" points="64.21 70.97 62.14 70.97 62.14 69.91 67.42 69.91 67.42 70.97 65.36 70.97 65.36 76.41 64.21 76.41 64.21 70.97"/><path class="cls-1" d="M25.1,63.82l2.77-3.32a9.78,9.78,0,0,0,6.37,2.59c1.92,0,3.08-.76,3.08-2V61c0-1.19-.73-1.8-4.3-2.71C28.73,57.2,26,56,26,51.78v-.06c0-3.87,3.11-6.43,7.47-6.43A12.37,12.37,0,0,1,41.35,48l-2.44,3.54a10,10,0,0,0-5.55-2.1c-1.8,0-2.74.82-2.74,1.86v.06c0,1.4.91,1.86,4.6,2.8,4.33,1.13,6.77,2.68,6.77,6.4v.06c0,4.24-3.23,6.62-7.83,6.62a13.58,13.58,0,0,1-9.05-3.41"/><path class="cls-1" d="M14.05,5.87c-.44,0-.7.27-.8.79,0,0-.11.77-.23,2.07s-.24,3.08-.24,5.32c0,5.06.66,12.24,3.81,17.75,2.42,4.2,5.83,6.57,9.63,6.69A12,12,0,0,1,22,32.54a32.35,32.35,0,0,1-1.34-9.76,54,54,0,0,1,1.12-10.71V12a2.26,2.26,0,0,1,1.11-1.57,56.31,56.31,0,0,0-7.87-4.23c-.39-.18-.6-.25-.6-.25h0a1.08,1.08,0,0,0-.42-.09"/><path class="cls-1" d="M47.12,11.78a.55.55,0,0,0-.33.14l-.34.28c-.22.18-.54.45-1,.83a43.11,43.11,0,0,0-3.15,3.14,30.33,30.33,0,0,0-6.47,10.72,23,23,0,0,0-1.18,6.68A7.75,7.75,0,0,0,35.33,37a3.88,3.88,0,0,0,2,2,3.53,3.53,0,0,0,1.43.26h0c2.65,0,7.08-2.22,8.61-7.14a31.79,31.79,0,0,0,1.24-9.31,54.19,54.19,0,0,0-.91-9.63c-.11-.53-.17-.82-.17-.82-.07-.25-.19-.56-.42-.56"/><path class="cls-1" d="M23.76,11.78c-.23,0-.37.31-.45.57l-.17.81c-.07.37-.22,1.15-.38,2.26a52.94,52.94,0,0,0-.54,7.37,30.7,30.7,0,0,0,1.25,9.29C25,37,29.57,39.24,32.3,39.24h0a3.83,3.83,0,0,0,1.5-.27,3.73,3.73,0,0,0,.68-.37,5.72,5.72,0,0,1-.54-.91,9.63,9.63,0,0,1-.81-4.11,25.28,25.28,0,0,1,1.27-7.13c.07-.24.16-.49.24-.74l.1-.29c-2.9-7.2-9.55-12.62-10.3-13.22l-.36-.28a.66.66,0,0,0-.34-.14"/><path class="cls-1" d="M35.41,0c-.16,0-.33.13-.49.38,0,0-.14.2-.36.57-.33.55-.65,1.09-1,1.66-.72,1.27-1.81,3.33-2.93,5.88-.77,1.74-1.47,3.56-2.08,5.4a35.54,35.54,0,0,1,7,9.59A35.36,35.36,0,0,1,42.26,14a67.13,67.13,0,0,0-6-13.06L35.89.37C35.66,0,35.47,0,35.41,0"/><path class="cls-1" d="M56.74,5.87a1.05,1.05,0,0,0-.4.09h0s-.21.07-.59.25-.86.38-1.48.67L54,7a56.57,56.57,0,0,0-5.55,3.08l-.6.37A2.26,2.26,0,0,1,49,12l0,.07a55,55,0,0,1,1.1,10.7,33.29,33.29,0,0,1-1.3,9.75,12,12,0,0,1-4.1,5.94c3.75-.18,7.11-2.53,9.5-6.69C57.37,26.29,58,19.1,58,14c0-1.79-.08-3.58-.24-5.34-.12-1.29-.23-2.05-.23-2.06a.81.81,0,0,0-.82-.78"/><path class="cls-1" d="M46.34,1.6h-.16a.76.76,0,0,0-.36.15h0s-.83.51-2.1,1.42c-.7.51-1.82,1.34-3.19,2.47,1,2.07,1.89,4.17,2.65,6.27a53,53,0,0,1,5.47-3.74,54.7,54.7,0,0,0-1.5-5.9l0-.06a.82.82,0,0,0-.77-.63"/><path class="cls-1" d="M24.47,1.6a.82.82,0,0,0-.77.63l0,.06a54,54,0,0,0-1.5,5.9,52.79,52.79,0,0,1,5.46,3.74A62.9,62.9,0,0,1,30.3,5.66c-1.08-.9-2.16-1.73-3.19-2.47C25.83,2.27,25,1.77,25,1.76h0a.76.76,0,0,0-.36-.15h-.16"/><path class="cls-1" d="M6.11,15.26c-1.1,0-1.74,0-1.75,0a1.43,1.43,0,0,0-1.1.65,1.37,1.37,0,0,0-.22.81c.08.76.58,3.51,3.87,7.65,1.68-.83,3.35-1.57,5-2.18a49,49,0,0,1-.59-6.7c-2-.19-3.59-.24-4.57-.26h-.6"/><path class="cls-1" d="M64.69,15.26H64.1c-1,0-2.57.07-4.57.26a50.86,50.86,0,0,1-.6,6.7c1.62.62,3.29,1.35,5,2.18,3.29-4.15,3.79-6.9,3.87-7.65a1.51,1.51,0,0,0-.22-.8,1.43,1.43,0,0,0-1.1-.65s-.66,0-1.75,0"/><path class="cls-1" d="M58.66,23.75a29.13,29.13,0,0,1-3.13,8.8,15.52,15.52,0,0,1-5.44,5.8c15.62-.85,20-5.87,20.49-6.46h0a1.4,1.4,0,0,0,.23-.77A1.43,1.43,0,0,0,70.26,30l-.51-.35h0c-.25-.19-.61-.42-1.06-.72l-.38-.25a55.64,55.64,0,0,0-5.12-2.91,46.67,46.67,0,0,0-4.52-2"/><path class="cls-1" d="M12.15,23.75a53.59,53.59,0,0,0-11.1,5.88L.55,30A1.43,1.43,0,0,0,0,31.12a1.38,1.38,0,0,0,.23.77l0,0,.1.12.06.07a7.7,7.7,0,0,0,.75.7A15.73,15.73,0,0,0,4.91,35.1C8.85,36.88,14.3,38,20.72,38.37a15.81,15.81,0,0,1-5.44-5.82,29.24,29.24,0,0,1-3.12-8.8"/><path class="cls-1" d="M56.7,39.5a33.3,33.3,0,0,0-3.77.41l-.84.11a21.78,21.78,0,0,1-3,.16c-.78,0-1.58,0-2.43,0h-.08c-.81,0-1.73,0-2.65,0a25.3,25.3,0,0,0-6.57.69.25.25,0,0,0-.18.23c0,.07.15.1.26.1h.1C38.4,41,39.24,41,40,41a24.86,24.86,0,0,1,6.67,1,21.55,21.55,0,0,0,5.76.87c2.47,0,4.43-.53,5.24-1.41a1.23,1.23,0,0,0,.36-1c-.06-.66-.28-1-1.36-1"/><path class="cls-1" d="M14.1,39.5c-1.08,0-1.29.3-1.35,1a1.21,1.21,0,0,0,.35,1c.79.87,2.8,1.42,5.25,1.42A21.54,21.54,0,0,0,24.11,42a24.83,24.83,0,0,1,6.67-1c.79,0,1.63,0,2.49.12h.1c.11,0,.25,0,.26-.1a.25.25,0,0,0-.18-.23,25.3,25.3,0,0,0-6.57-.69h0c-.92,0-1.84,0-2.65,0h-.08c-.85,0-1.66,0-2.43,0a21.82,21.82,0,0,1-3-.16l-.86-.12a33.44,33.44,0,0,0-3.76-.41"/></g></g></svg>