<svg xmlns="http://www.w3.org/2000/svg" viewBox="0 0 58.7 90.56"><defs><style>.cls-1{fill:#fff;}</style></defs><title>odm</title><g id="Layer_2" data-name="Layer 2"><g id="Layer_1-2" data-name="Layer 1"><path class="cls-1" d="M.16,90.14V83.92a.48.48,0,0,1,.52-.46H.85c.37,0,.47.17.63.55L3.3,88l1.83-4c.16-.37.26-.55.63-.55h.15a.48.48,0,0,1,.52.46v6.22c0,.22-.1.33-.31.33H6c-.2,0-.3-.11-.3-.33V84.29l-1.82,4a.63.63,0,0,1-.63.46.62.62,0,0,1-.63-.46l-1.81-4v5.85c0,.22-.09.33-.3.33H.44C.24,90.47.16,90.36.16,90.14Z"/><path class="cls-1" d="M7.43,87.9A2.56,2.56,0,0,1,10,85.2a2.33,2.33,0,0,1,2.38,2.57v.06c0,.19-.08.24-.29.24h-4a1.88,1.88,0,0,0,1.94,1.86A1.83,1.83,0,0,0,11.81,89a.41.41,0,0,1,.41.4c0,.35-.77,1.14-2.15,1.14A2.53,2.53,0,0,1,7.43,87.9Zm.72-.43h3.49A1.6,1.6,0,0,0,10,85.81,1.86,1.86,0,0,0,8.14,87.47Z"/><path class="cls-1" d="M13.93,86.13a2,2,0,0,1,1.73-.93c1.35,0,2,.9,2,2.25v2.69c0,.26-.13.33-.31.33H17.3c-.18,0-.31-.07-.31-.33V87.49c0-1-.5-1.64-1.37-1.64a1.8,1.8,0,0,0-1.68,1.08v3.2c0,.26-.13.33-.31.33h-.07c-.18,0-.31-.07-.31-.33V85.36s.11-.07.24-.07.45.12.45.67Z"/><path class="cls-1" d="M18.27,85.67v-.06c0-.18.07-.28.33-.28h.47v-.89c0-.26.13-.33.31-.33h.08c.18,0,.3.07.3.33v.89h1.36c.26,0,.33.1.33.28v.06c0,.18-.08.28-.33.28H19.76v2.9c0,.75.19,1.1.76,1.1a1,1,0,0,0,.79-.37s.24.08.24.34-.38.63-1,.63c-1,0-1.42-.57-1.42-1.63V86h-.47C18.35,86,18.27,85.85,18.27,85.67Z"/><path class="cls-1" d="M21.87,89.12c0-1.19,1.19-1.68,3.54-1.74h.11V87.2a1.26,1.26,0,0,0-1.43-1.36,1.75,1.75,0,0,0-1.63.94.41.41,0,0,1-.4-.41c0-.36.73-1.18,2.08-1.18a1.86,1.86,0,0,1,2.07,2v3.21s-.11.07-.24.07-.44-.12-.44-.67V89.6a2.26,2.26,0,0,1-1.91.94C22.52,90.54,21.87,90,21.87,89.12Zm3.65-.72v-.47h-.3c-1.75.06-2.64.37-2.64,1.18,0,.51.42.85,1.11.85A1.66,1.66,0,0,0,25.52,88.4Z"/><path class="cls-1" d="M27.44,90.14V83.21s.11-.08.24-.08.46.12.46.67v6.33c0,.26-.13.33-.31.33h-.07C27.57,90.47,27.44,90.39,27.44,90.14Z"/><path class="cls-1" d="M31.12,90.14V83.79a.29.29,0,0,1,.31-.33h.1a.29.29,0,0,1,.32.33v2.84H36V83.79c0-.21.11-.33.31-.33h.1a.29.29,0,0,1,.32.33v6.35c0,.22-.11.33-.32.33h-.1c-.2,0-.31-.11-.31-.33V87.29H31.85v2.85c0,.22-.11.33-.32.33h-.1C31.23,90.47,31.12,90.36,31.12,90.14Z"/><path class="cls-1" d="M37.73,87.9a2.56,2.56,0,0,1,2.57-2.7,2.33,2.33,0,0,1,2.38,2.57v.06c0,.19-.07.24-.29.24h-4a1.88,1.88,0,0,0,1.94,1.86A1.83,1.83,0,0,0,42.11,89a.41.41,0,0,1,.41.4c0,.35-.77,1.14-2.15,1.14A2.53,2.53,0,0,1,37.73,87.9Zm.72-.43h3.49a1.6,1.6,0,0,0-1.64-1.66A1.86,1.86,0,0,0,38.45,87.47Z"/><path class="cls-1" d="M43.23,89.12c0-1.19,1.19-1.68,3.54-1.74h.11V87.2a1.26,1.26,0,0,0-1.43-1.36,1.75,1.75,0,0,0-1.63.94.41.41,0,0,1-.4-.41c0-.36.73-1.18,2.08-1.18a1.86,1.86,0,0,1,2.07,2v3.21s-.11.07-.24.07-.44-.12-.44-.67V89.6a2.26,2.26,0,0,1-1.91.94C43.87,90.54,43.23,90,43.23,89.12Zm3.65-.72v-.47h-.3c-1.75.06-2.65.37-2.65,1.18,0,.51.42.85,1.11.85A1.66,1.66,0,0,0,46.88,88.4Z"/><path class="cls-1" d="M48.79,90.14V83.21s.11-.08.24-.08.46.12.46.67v6.33c0,.26-.13.33-.31.33H49.1C48.92,90.47,48.79,90.39,48.79,90.14Z"/><path class="cls-1" d="M50.28,85.67v-.06c0-.18.08-.28.33-.28h.47v-.89c0-.26.13-.33.31-.33h.07c.18,0,.3.07.3.33v.89h1.36c.26,0,.33.1.33.28v.06c0,.18-.07.28-.33.28H51.77v2.9c0,.75.19,1.1.76,1.1a1,1,0,0,0,.79-.37s.24.08.24.34-.37.63-1,.63c-1,0-1.42-.57-1.42-1.63V86h-.47C50.36,86,50.28,85.85,50.28,85.67Z"/><path class="cls-1" d="M55,86.14a2,2,0,0,1,1.72-.94c1.35,0,2,.9,2,2.25v2.69c0,.26-.13.33-.31.33h-.08c-.18,0-.31-.07-.31-.33V87.49c0-1-.51-1.64-1.37-1.64A1.61,1.61,0,0,0,55,87.6v2.54c0,.26-.13.33-.31.33h-.07c-.18,0-.31-.07-.31-.33V83.21s.11-.08.24-.08.46.12.46.67Z"/><path class="cls-1" d="M58.49,70.06c0-.05,0-.1,0-.15s0-.1,0-.15c0-3-2-4.59-5.8-4.59H48.35A1.66,1.66,0,0,0,46.59,67v11.1c0,1.18.5,1.84,1.41,1.84h.48a1.35,1.35,0,0,0,1.46-1.52V74.65h2.42L55.2,79c.65,1,1.43,1.26,2.19.76l.4-.26a1.35,1.35,0,0,0,.38-2.06L56,74.09A4,4,0,0,0,58.49,70.06Zm-8.6-2.28h2.5c1.82,0,2.73.77,2.73,2.21s-.86,2.21-2.66,2.21H49.89Z"/><path class="cls-1" d="M0,78V67a1.71,1.71,0,0,1,1.77-1.87H5.48c5,0,7.94,2.75,7.94,7.3s-3.07,7.42-8,7.42H1.87A1.84,1.84,0,0,1,0,78Zm5.37-1c2.93,0,4.71-1.66,4.71-4.53S8.3,68,5.41,68H3.32v9Z"/><path class="cls-1" d="M14.48,72.53a7.35,7.35,0,0,1,7.6-7.67,7.65,7.65,0,0,1,0,15.31A7.28,7.28,0,0,1,14.48,72.53Zm11.85,0c0-2.78-1.75-4.71-4.28-4.71s-4.23,1.87-4.23,4.69,1.73,4.69,4.25,4.69S26.33,75.33,26.33,72.53Z"/><path class="cls-1" d="M30.36,72.53A7.35,7.35,0,0,1,38,64.87a7.65,7.65,0,0,1,0,15.31A7.28,7.28,0,0,1,30.36,72.53Zm11.85,0c0-2.78-1.75-4.71-4.28-4.71s-4.23,1.87-4.23,4.69,1.73,4.69,4.25,4.69S42.21,75.33,42.21,72.53Z"/><path class="cls-1" d="M42.74,50.82a5.64,5.64,0,0,0-5.65,5.94,5.57,5.57,0,0,0,5.8,5.84,5.64,5.64,0,0,0,4.36-1.71l.27-.32a.57.57,0,0,0-.06-.92l-.12-.1a.57.57,0,0,0-.91.12l-.26.32a4.14,4.14,0,0,1-3.28,1.24,4.14,4.14,0,0,1-4.26-4.1h8.72c.47,0,.64-.09.64-.52v-.14C48,53.06,45.89,50.82,42.74,50.82Zm-4.08,5a4.1,4.1,0,0,1,4.08-3.65,3.53,3.53,0,0,1,3.6,3.65Z"/><path class="cls-1" d="M17.14,46.95c-4.41,0-7.53,3.24-7.53,7.86s3.06,7.79,7.49,7.79,7.53-3.22,7.53-7.84S21.57,46.95,17.14,46.95Zm0,14.28c-3.43,0-5.9-2.68-5.9-6.46s2.43-6.44,5.86-6.44S23,51.05,23,54.81,20.57,61.22,17.14,61.22Z"/><path class="cls-1" d="M31.29,50.82a4.4,4.4,0,0,0-3.79,2v-1.1c0-.57-.28-.73-.68-.73h-.16c-.4,0-.68.16-.68.73v9.94c0,.57.28.73.68.73h.16c.4,0,.68-.16.68-.73v-7a4,4,0,0,1,3.7-2.38c1.91,0,3,1.37,3,3.6v5.82c0,.57.28.73.68.73h.16c.4,0,.68-.16.68-.73V55.77C35.74,52.8,34.26,50.82,31.29,50.82Z"/><path class="cls-1" d="M28.5,32.6c-.39,0-.55.27-.36.61l.74,1.32a.38.38,0,0,0,.71,0l.78-1.3c.2-.34,0-.61-.35-.62Zm-2.8-20.78a12.43,12.43,0,0,0,.56,1.72,10.09,10.09,0,0,1,1.33-.31.77.77,0,0,1,.11-.36l.5-.85a41.15,41.15,0,0,1,1.05-4.81,43.4,43.4,0,0,1,1,4.77l.51.9a.81.81,0,0,1,.11.34,10.23,10.23,0,0,1,1.33.31,14.77,14.77,0,0,0,.54-1.73h0a14.71,14.71,0,0,0,.35-3A11.91,11.91,0,0,0,29.25,0a11.91,11.91,0,0,0-3.89,8.84,15.1,15.1,0,0,0,.34,3ZM39.18,7.73h0a10.17,10.17,0,0,0-1-5.93,10.12,10.12,0,0,0-4.81,3.6,11.42,11.42,0,0,1,1.32,5.2A13.13,13.13,0,0,1,39.18,7.73ZM37.85,22.5l-1.45-.79c-.37-.2-.67,0-.66.4l0,1.65c0,.43.32.59.68.37l1.41-.86A.41.41,0,0,0,37.85,22.5Zm-9.43,5.79h1.65c.43,0,.6-.31.38-.67l-.83-1.43a.41.41,0,0,0-.77,0L28,27.62C27.82,28,28,28.29,28.42,28.29Zm.51-8.21a.41.41,0,0,0,.77,0l.82-1.44c.21-.37,0-.67-.39-.67H28.49c-.43,0-.6.3-.38.67Zm-6-2.72.42,1.6a.41.41,0,0,0,.75.2L25.27,18a.41.41,0,0,0-.2-.75l-1.59-.43C23.07,16.71,22.82,17,22.93,17.37ZM30.58,16l-.83-1.43a.41.41,0,0,0-.77,0L28.15,16c-.21.37,0,.67.39.67h1.65C30.62,16.62,30.79,16.32,30.58,16Zm6.83,8.95-1.64.21c-.42.05-.56.38-.3.71l1,1.31a.41.41,0,0,0,.77-.1l.64-1.52C38,25.12,37.83,24.85,37.41,24.9Zm-7.22,4.71-1.65,0c-.43,0-.6.31-.38.67L29,31.73a.41.41,0,0,0,.77,0l.81-1.44C30.79,29.91,30.61,29.61,30.19,29.61Zm1.54-8.36,1.59-.44a.41.41,0,0,0,.2-.75l-1.17-1.16a.41.41,0,0,0-.75.2l-.42,1.6C31.07,21.12,31.32,21.37,31.73,21.26Zm4.51-2.54-1,1.33c-.25.34-.11.66.31.71l1.64.18c.42,0,.63-.24.46-.63L37,18.8A.41.41,0,0,0,36.24,18.72Zm-1.28-2-1.6.42a.41.41,0,0,0-.2.75L34.32,19a.41.41,0,0,0,.75-.2l.43-1.59C35.62,16.8,35.37,16.56,35,16.67Zm-.08-3.95a0,0,0,0,1,0,0,12.44,12.44,0,0,0-.8,1.58A10.19,10.19,0,0,1,35.2,15a.7.7,0,0,1,.4-.24l1.07-.27a42.26,42.26,0,0,1,4-2.52A43.61,43.61,0,0,1,38,16.06l-.27.94a.73.73,0,0,1-.21.36,10.09,10.09,0,0,1,.74,1.21,14.75,14.75,0,0,0,1.6-.84h0a14.71,14.71,0,0,0,2.35-1.86,11.91,11.91,0,0,0,3.5-9,11.91,11.91,0,0,0-9,3.5A15.1,15.1,0,0,0,34.88,12.72ZM42,17.94a13.13,13.13,0,0,1,5.22,1.32h0a10.17,10.17,0,0,0,3.58-4.84,10.12,10.12,0,0,0-5.92-1A11.42,11.42,0,0,1,42,17.94ZM35.78,28.81l-.42-1.6a.41.41,0,0,0-.75-.2l-1.17,1.16a.41.41,0,0,0,.2.75l1.6.43C35.64,29.47,35.89,29.22,35.78,28.81Zm4.91-2.25a14.71,14.71,0,0,0,3,.35A11.91,11.91,0,0,0,52.5,23a11.91,11.91,0,0,0-8.84-3.89,15.09,15.09,0,0,0-3,.34h0a12.44,12.44,0,0,0-1.77.58,10.32,10.32,0,0,1,.33,1.25.88.88,0,0,1,.22.08l1.21.62a42.17,42.17,0,0,1,4.61,1,41.71,41.71,0,0,1-5.1,1.06l-.58.37a.84.84,0,0,1-.26.11,10.09,10.09,0,0,1-.3,1.47,14.73,14.73,0,0,0,1.63.51Zm-8.58,5,1.53-.63a.41.41,0,0,0,.1-.77l-1.31-1c-.34-.26-.66-.13-.72.29l-.22,1.64C31.44,31.51,31.71,31.72,32.11,31.56Zm1.7-9.65-1.43.83a.41.41,0,0,0,0,.77l1.43.82c.37.21.67,0,.67-.39V22.29C34.48,21.86,34.17,21.69,33.8,21.91Zm-2.18,5.26a.41.41,0,0,0,.75.2l1.16-1.17a.41.41,0,0,0-.2-.75L31.74,25c-.41-.11-.66.14-.54.55ZM26.48,17c.34.26.66.13.72-.29L27.42,15c.06-.42-.22-.64-.61-.47l-1.53.63a.41.41,0,0,0-.1.77Zm7-1.71L32,14.62c-.39-.16-.67,0-.62.47l.21,1.64a.41.41,0,0,0,.72.3l1.31-1A.41.41,0,0,0,33.48,15.26ZM20.75,23.49l1.45.79c.37.2.67,0,.66-.4l0-1.65c0-.43-.32-.59-.68-.37l-1.41.86A.41.41,0,0,0,20.75,23.49Zm3,10.43a0,0,0,0,1,0,0,12.42,12.42,0,0,0,.81-1.59,10.23,10.23,0,0,1-1.19-.73.81.81,0,0,1-.31.14l-.83.19a40.48,40.48,0,0,1-4.25,2.73,43.64,43.64,0,0,1,2.62-4.06l.34-1.11a.9.9,0,0,1,.09-.2,10.15,10.15,0,0,1-.74-1.17,14.74,14.74,0,0,0-1.55.81h0a14.7,14.7,0,0,0-2.35,1.86,11.91,11.91,0,0,0-3.5,9,11.91,11.91,0,0,0,9-3.5A15.1,15.1,0,0,0,23.71,33.92ZM18.64,17.68h0a12.42,12.42,0,0,0,1.6.81A10.22,10.22,0,0,1,21,17.35.78.78,0,0,1,20.8,17l-.25-1a41.39,41.39,0,0,1-2.63-4.11A43.3,43.3,0,0,1,22,14.58l1,.27a.81.81,0,0,1,.3.15,10.08,10.08,0,0,1,1.18-.73,14.77,14.77,0,0,0-.83-1.59h0a14.72,14.72,0,0,0-1.86-2.35,11.91,11.91,0,0,0-9-3.5,11.91,11.91,0,0,0,3.5,9A15.1,15.1,0,0,0,18.64,17.68Zm5.53,4.54v1.65c0,.43.3.6.67.38l1.43-.83a.41.41,0,0,0,0-.77l-1.43-.82C24.47,21.62,24.17,21.8,24.17,22.23Zm-6.37,4.4h0a12.41,12.41,0,0,0,1.64-.53,10.26,10.26,0,0,1-.29-1.39L19,24.62l-.83-.49a40.38,40.38,0,0,1-5-1.07,42.39,42.39,0,0,1,5-1l.84-.48a.9.9,0,0,1,.2-.08,10,10,0,0,1,.34-1.35,14.75,14.75,0,0,0-1.76-.56h0a14.71,14.71,0,0,0-3-.35A11.91,11.91,0,0,0,6,23.08,11.91,11.91,0,0,0,14.83,27,15.1,15.1,0,0,0,17.8,26.62Zm1.7,11.73h0a10.17,10.17,0,0,0,1,5.93,10.12,10.12,0,0,0,4.83-3.58,11.42,11.42,0,0,1-1.29-5.21A13.13,13.13,0,0,1,19.5,38.36Zm-3-10.08A13.13,13.13,0,0,1,11.32,27h0a10.17,10.17,0,0,0-3.56,4.85,10.12,10.12,0,0,0,5.93,1A11.42,11.42,0,0,1,16.54,28.27Zm16.24,6.48A12.43,12.43,0,0,0,32.22,33a10.09,10.09,0,0,1-1.32.3.82.82,0,0,1-.11.3l-.5.85a40.92,40.92,0,0,1-1.06,4.86,43,43,0,0,1-1-4.87l-.49-.86a.84.84,0,0,1-.1-.28A10.21,10.21,0,0,1,26.25,33a14.77,14.77,0,0,0-.54,1.73h0a14.71,14.71,0,0,0-.35,3,11.91,11.91,0,0,0,3.89,8.84,11.91,11.91,0,0,0,3.89-8.84,15.09,15.09,0,0,0-.34-3Zm7.06-5.9h0a12.43,12.43,0,0,0-1.58-.8,10.21,10.21,0,0,1-.71,1.15.84.84,0,0,1,.11.26l.2.92a40.59,40.59,0,0,1,2.72,4.23,42.34,42.34,0,0,1-4.26-2.78l-.94-.3-.09,0A10.09,10.09,0,0,1,34,32.3a14.75,14.75,0,0,0,.82,1.56h0a14.71,14.71,0,0,0,1.86,2.35,11.91,11.91,0,0,0,9,3.5,11.91,11.91,0,0,0-3.5-9A15.1,15.1,0,0,0,39.84,28.85ZM47.19,27A11.42,11.42,0,0,1,42,28.25a13.13,13.13,0,0,1,2.83,4.57h0a10.17,10.17,0,0,0,5.94-1A10.12,10.12,0,0,0,47.19,27ZM34.66,35.54a13.13,13.13,0,0,1-1.34,5.21h0a10.17,10.17,0,0,0,4.82,3.61,10.12,10.12,0,0,0,1-5.92A11.42,11.42,0,0,1,34.66,35.54ZM11.37,19.17a11.42,11.42,0,0,1,5.2-1.35,13.13,13.13,0,0,1-2.91-4.53h0a10.17,10.17,0,0,0-5.92,1.09A10.12,10.12,0,0,0,11.37,19.17Zm13.71,9.94a.41.41,0,0,0,.2-.75l-1.16-1.17a.41.41,0,0,0-.75.2L22.94,29c-.11.41.13.66.55.55Zm-3.71-1.95a.41.41,0,0,0,.77.1l1-1.31c.26-.34.13-.66-.29-.72L21.23,25c-.42-.06-.63.22-.47.61ZM25.11,31l1.52.64c.39.16.67,0,.62-.47L27,29.5a.41.41,0,0,0-.72-.3l-1.31,1A.41.41,0,0,0,25.11,31Zm-3.8-9.9L23,20.87c.42-.05.56-.38.3-.71l-1-1.31a.41.41,0,0,0-.77.1l-.64,1.52C20.68,20.85,20.89,21.13,21.31,21.08ZM26.81,25l-1.59.43a.41.41,0,0,0-.2.75l1.17,1.16a.41.41,0,0,0,.75-.2l.42-1.6C27.47,25.1,27.22,24.86,26.81,25Zm.68-4.32L27,19.05a.41.41,0,0,0-.75-.2L25.13,20a.41.41,0,0,0,.2.75l1.6.42C27.35,21.31,27.59,21.06,27.48,20.65Zm-3.62-9.87A13.13,13.13,0,0,1,25.32,5.6h0a10.17,10.17,0,0,0-4.74-3.71,10.12,10.12,0,0,0-1.17,5.89A11.42,11.42,0,0,1,23.86,10.78Zm4.62,3.13H30c.39,0,.55-.28.36-.61L29.6,12a.38.38,0,0,0-.71,0l-.76,1.31C27.94,13.64,28.1,13.91,28.49,13.91Zm12,8.68-1.31-.76c-.34-.19-.61,0-.61.36V23.7c0,.39.28.55.61.36l1.31-.76A.38.38,0,0,0,40.49,22.59ZM19.42,21.9l-1.31.76a.38.38,0,0,0,0,.71l1.31.76c.34.19.61,0,.61-.36V22.26C20,21.87,19.76,21.71,19.42,21.9ZM35.55,31l1.46.41c.38.11.6-.12.51-.49l-.37-1.47a.38.38,0,0,0-.68-.19l-1.09,1.06A.38.38,0,0,0,35.55,31ZM23,15.55l-1.46-.41c-.38-.11-.6.12-.51.49l.37,1.47a.38.38,0,0,0,.68.19l1.09-1.06A.38.38,0,0,0,23,15.55ZM37.16,15l-1.47.35a.38.38,0,0,0-.2.68l1,1.1a.38.38,0,0,0,.69-.16l.43-1.45C37.76,15.19,37.54,15,37.16,15ZM21.63,31.46l1.47-.35a.38.38,0,0,0,.2-.68l-1-1.1a.38.38,0,0,0-.69.16l-.43,1.45C21,31.31,21.25,31.55,21.63,31.46Z"/><path class="cls-1" d="M47.09,10a13.79,13.79,0,0,1-.44,1.71,12.05,12.05,0,0,1,3.83.86H55.9V62.38h2.59V10Z"/><path class="cls-1" d="M11.87,11.61A13.73,13.73,0,0,1,11.46,10H0V62.38H2.59V12.56H7.87A12.22,12.22,0,0,1,11.87,11.61Z"/></g></g></svg>