<svg xmlns="http://www.w3.org/2000/svg" viewBox="0 0 70.24 85.12"><defs><style>.cls-1{fill:#fff;}</style></defs><title>pam</title><g id="Layer_2" data-name="Layer 2"><g id="Layer_1-2" data-name="Layer 1"><path class="cls-1" d="M4.4,55H1.56v3.64H4.4a1.64,1.64,0,0,0,1.81-1.83A1.67,1.67,0,0,0,4.4,55m-.08,5.14H1.56v3.95H0V53.48H4.43a3.11,3.11,0,0,1,3.4,3.31c0,2.18-1.45,3.32-3.51,3.32"/><path class="cls-1" d="M12.91,60.68a3.93,3.93,0,0,0-1.82-.35c-1,0-1.63.45-1.63,1.18S10,62.82,11,62.82a2.49,2.49,0,0,0,1.92-1Zm0,3.39v-.79a3.12,3.12,0,0,1-2.18,1A2.56,2.56,0,0,1,8,61.55C8,59.78,9.34,59,11.14,59a4.37,4.37,0,0,1,1.77.3v-.59c0-.86-.53-1.34-1.5-1.34a4,4,0,0,0-2.07.5l-.6-1.18A4.92,4.92,0,0,1,11.46,56c1.77,0,3,.86,3,2.66v5.44Z"/><path class="cls-1" d="M20.23,57.77A2.33,2.33,0,0,0,19,57.49c-1,0-1.56.7-1.56,2v4.54H15.92V56.12h1.56v.76A2.21,2.21,0,0,1,19.29,56a2.27,2.27,0,0,1,1.34.33Z"/><path class="cls-1" d="M25.79,57.77a2.34,2.34,0,0,0-1.2-.29c-1,0-1.56.7-1.56,2v4.54H21.48V56.12H23v.76A2.21,2.21,0,0,1,24.85,56a2.27,2.27,0,0,1,1.34.33Z"/><path class="cls-1" d="M31.07,60.68a3.92,3.92,0,0,0-1.81-.35c-1,0-1.63.45-1.63,1.18s.5,1.31,1.53,1.31a2.49,2.49,0,0,0,1.92-1Zm0,3.39v-.79a3.13,3.13,0,0,1-2.18,1,2.56,2.56,0,0,1-2.75-2.67c0-1.77,1.36-2.57,3.16-2.57a4.36,4.36,0,0,1,1.77.3v-.59c0-.86-.53-1.34-1.5-1.34a4,4,0,0,0-2.07.5l-.61-1.18A4.92,4.92,0,0,1,29.61,56c1.77,0,3,.86,3,2.66v5.44Z"/><path class="cls-1" d="M43.3,64.06V59.57c0-1.6-.5-2.18-1.53-2.18s-1.53.74-1.53,2v4.64H38.68V59.57c0-1.6-.5-2.18-1.52-2.18s-1.53.74-1.53,2v4.64H34.07V56.12h1.56v.76A2.22,2.22,0,0,1,37.52,56a2.26,2.26,0,0,1,2.18,1.16A2.77,2.77,0,0,1,42.13,56c1.84,0,2.72,1.21,2.72,3.55v4.55Z"/><path class="cls-1" d="M50.88,60.68a3.93,3.93,0,0,0-1.82-.35c-1,0-1.63.45-1.63,1.18s.5,1.31,1.53,1.31a2.49,2.49,0,0,0,1.92-1Zm0,3.39v-.79a3.12,3.12,0,0,1-2.18,1A2.56,2.56,0,0,1,46,61.55C46,59.78,47.32,59,49.11,59a4.35,4.35,0,0,1,1.77.3v-.59c0-.86-.53-1.34-1.49-1.34a4,4,0,0,0-2.07.5l-.61-1.18A4.9,4.9,0,0,1,49.43,56c1.77,0,3,.86,3,2.66v5.44Z"/><path class="cls-1" d="M57.69,63.86a3.16,3.16,0,0,1-1.53.36c-1.1,0-1.79-.68-1.79-2.1V57.55H53.24V56.12h1.13V53.86L55.9,53v3.08h2v1.42h-2v4.31c0,.74.24,1,.82,1a2.47,2.47,0,0,0,1.15-.32Z"/><path class="cls-1" d="M62.79,63.86a3.16,3.16,0,0,1-1.52.36c-1.1,0-1.78-.68-1.78-2.1V57.55H58.35V56.12h1.14V53.86L61,53v3.08h2v1.42H61v4.31c0,.74.24,1,.82,1A2.49,2.49,0,0,0,63,62.49Z"/><path class="cls-1" d="M68.66,60.68a3.92,3.92,0,0,0-1.81-.35c-1,0-1.63.45-1.63,1.18s.5,1.31,1.53,1.31a2.49,2.49,0,0,0,1.92-1Zm0,3.39v-.79a3.12,3.12,0,0,1-2.18,1,2.56,2.56,0,0,1-2.75-2.67c0-1.77,1.36-2.57,3.16-2.57a4.36,4.36,0,0,1,1.77.3v-.59c0-.86-.53-1.34-1.5-1.34a4,4,0,0,0-2.07.5l-.61-1.18A4.91,4.91,0,0,1,67.21,56c1.77,0,3,.86,3,2.66v5.44Z"/><path class="cls-1" d="M12.65,84.87V76.27c0-1,0-2.39,0-2.86-.19.46-.65,1.62-1,2.55L7.7,85.12,3.8,76c-.39-.93-.86-2.09-1-2.55,0,.46,0,1.88,0,2.86v8.59H.5V68.61H3l3.64,8.66c.4.93.91,2.12,1.11,2.79.23-.67.7-1.84,1.09-2.79l3.57-8.66H15V84.87Z"/><path class="cls-1" d="M17.87,72.67h2.39V84.87H17.87Zm1.21-1.58a1.55,1.55,0,1,1,1.53-1.53,1.55,1.55,0,0,1-1.53,1.53"/><path class="cls-1" d="M26.7,85.12A8.36,8.36,0,0,1,22,83.57l1.09-1.81A6.4,6.4,0,0,0,26.67,83c1.51,0,2.23-.49,2.23-1.35s-1.07-1.37-2.83-2c-2.63-1-3.58-1.91-3.58-3.83,0-2.18,1.72-3.32,4.16-3.32a7.26,7.26,0,0,1,4.13,1.35l-1,1.83a5.3,5.3,0,0,0-3.16-1c-1.16,0-1.67.46-1.67,1.11s.42,1,2.25,1.77c2.72,1,4.11,1.79,4.11,4.09,0,2.7-2.18,3.6-4.57,3.6"/><path class="cls-1" d="M36.89,85.12a8.36,8.36,0,0,1-4.67-1.55l1.09-1.81A6.4,6.4,0,0,0,36.87,83c1.51,0,2.23-.49,2.23-1.35s-1.07-1.37-2.83-2c-2.62-1-3.58-1.91-3.58-3.83,0-2.18,1.72-3.32,4.16-3.32A7.25,7.25,0,0,1,41,73.77l-1,1.83a5.32,5.32,0,0,0-3.16-1c-1.16,0-1.67.46-1.67,1.11s.42,1,2.25,1.77c2.72,1,4.11,1.79,4.11,4.09,0,2.7-2.18,3.6-4.58,3.6"/><path class="cls-1" d="M43.49,72.67h2.39V84.87H43.49ZM44.7,71.1a1.55,1.55,0,1,1,1.53-1.53A1.55,1.55,0,0,1,44.7,71.1"/><path class="cls-1" d="M53.13,74.7c-1.81,0-2.93,1.6-2.93,4,0,2.67,1.23,4.14,3,4.14s3-1.83,3-4.07c0-2.48-1.18-4.08-3.11-4.08m0,10.42c-3.06,0-5.36-2.53-5.36-6.34,0-4,2.37-6.36,5.44-6.36s5.43,2.48,5.43,6.29c0,4-2.37,6.41-5.5,6.41"/><path class="cls-1" d="M67.85,84.87V78c0-2.46-.93-3.34-2.51-3.34s-2.51,1.14-2.51,3.11v7.13H60.44V72.67h2.39v1.16a3.73,3.73,0,0,1,3.06-1.42c2.83,0,4.34,1.86,4.34,5.46v7Z"/><path class="cls-1" d="M34.07,0a11,11,0,1,0,11,11,11,11,0,0,0-11-11"/><path class="cls-1" d="M54,14.79a20,20,0,1,1-39.95,0c0-.08,0-.17,0-.25H6.61c0,.08,0,.17,0,.25a27.46,27.46,0,0,0,54.93,0c0-.08,0-.17,0-.25H54c0,.08,0,.17,0,.25"/></g></g></svg>