<svg xmlns="http://www.w3.org/2000/svg" viewBox="0 0 92.15 68.01"><defs><style>.cls-1{fill:#fff;}</style></defs><title>phn</title><g id="Layer_2" data-name="Layer 2"><g id="Layer_1-2" data-name="Layer 1"><path class="cls-1" d="M15,34.92a1.8,1.8,0,0,0-1.26-.43c-.77,0-1.31.46-1.31,1,0,.77.66,1,1.34,1.32.88.43,1.77.73,1.77,1.95a1.7,1.7,0,0,1-1.9,1.6,2.76,2.76,0,0,1-2-.81l.43-.38a2.15,2.15,0,0,0,1.56.61c.78,0,1.26-.46,1.26-1,0-.82-.75-1.1-1.42-1.43-.83-.41-1.7-.74-1.7-1.84a1.75,1.75,0,0,1,2-1.62,2.4,2.4,0,0,1,1.68.61Z"/><path class="cls-1" d="M19.81,34.49a2.67,2.67,0,1,0,2.57,2.67,2.55,2.55,0,0,0-2.57-2.67m0,5.92A3.24,3.24,0,1,1,23,37.16a3.15,3.15,0,0,1-3.22,3.24"/><path class="cls-1" d="M25.19,34v3.9a1.71,1.71,0,1,0,3.41,0V34h.63v3.9a2.33,2.33,0,1,1-4.66,0V34Z"/><polygon class="cls-1" points="30.49 34.03 35.33 34.03 35.33 34.58 33.22 34.58 33.22 40.3 32.59 40.3 32.59 34.58 30.49 34.58 30.49 34.03"/><polygon class="cls-1" points="36.63 40.3 36.63 34.03 37.26 34.03 37.26 36.77 40.7 36.77 40.7 34.03 41.32 34.03 41.32 40.3 40.7 40.3 40.7 37.33 37.26 37.33 37.26 40.3 36.63 40.3"/><polygon class="cls-1" points="45.61 34.03 46.27 34.03 47.83 39.5 47.84 39.5 49.43 34.03 50.26 34.03 51.83 39.49 51.85 39.49 53.39 34.03 54.05 34.03 52.26 40.3 51.43 40.3 49.85 34.83 49.83 34.83 48.25 40.3 47.41 40.3 45.61 34.03"/><polygon class="cls-1" points="59.38 39.74 59.38 40.3 55.39 40.3 55.39 34.03 59.28 34.03 59.28 34.58 56.02 34.58 56.02 36.76 59.06 36.76 59.06 37.32 56.02 37.32 56.02 39.74 59.38 39.74"/><path class="cls-1" d="M63.89,34.92a1.79,1.79,0,0,0-1.26-.43c-.77,0-1.31.46-1.31,1,0,.77.66,1,1.34,1.32.88.43,1.77.73,1.77,1.95a1.7,1.7,0,0,1-1.9,1.6,2.77,2.77,0,0,1-2-.81l.43-.38a2.16,2.16,0,0,0,1.56.61c.78,0,1.25-.46,1.25-1,0-.82-.75-1.1-1.42-1.43-.83-.41-1.7-.74-1.7-1.84a1.75,1.75,0,0,1,2-1.62,2.4,2.4,0,0,1,1.67.61Z"/><polygon class="cls-1" points="65.43 34.03 70.27 34.03 70.27 34.58 68.16 34.58 68.16 40.3 67.54 40.3 67.54 34.58 65.43 34.58 65.43 34.03"/><polygon class="cls-1" points="75.57 39.74 75.57 40.3 71.57 40.3 71.57 34.03 75.46 34.03 75.46 34.58 72.2 34.58 72.2 36.76 75.24 36.76 75.24 37.32 72.2 37.32 72.2 39.74 75.57 39.74"/><path class="cls-1" d="M77.62,36.82h1c1,0,1.58-.4,1.58-1.13s-.58-1.1-1.58-1.1h-1Zm1.2.56h-1.2V40.3H77V34h1.68c1.4,0,2.22.52,2.22,1.66a1.55,1.55,0,0,1-1.41,1.61l1.77,3h-.7Z"/><polygon class="cls-1" points="87.27 39.58 87.27 34.03 87.89 34.03 87.89 40.3 87.04 40.3 83.3 34.75 83.28 34.75 83.28 40.3 82.65 40.3 82.65 34.03 83.5 34.03 87.25 39.58 87.27 39.58"/><path class="cls-1" d="M15,45.67a1.8,1.8,0,0,0-1.26-.43c-.77,0-1.31.46-1.31,1,0,.77.66,1,1.34,1.32.88.43,1.77.74,1.77,1.94a1.7,1.7,0,0,1-1.9,1.6,2.77,2.77,0,0,1-2-.81l.43-.38a2.16,2.16,0,0,0,1.56.61c.78,0,1.26-.46,1.26-1,0-.82-.75-1.1-1.42-1.43-.83-.41-1.7-.74-1.7-1.84a1.75,1.75,0,0,1,2-1.62,2.41,2.41,0,0,1,1.68.61Z"/><polygon class="cls-1" points="18.79 51.05 18.79 48.42 16.4 44.78 17.12 44.78 19.1 47.82 19.11 47.82 21.09 44.78 21.81 44.78 19.42 48.42 19.42 51.05 18.79 51.05"/><path class="cls-1" d="M23.74,50.5H25.2a2.58,2.58,0,1,0,0-5.16H23.74Zm-.63-5.72H25.2a3.14,3.14,0,1,1,0,6.27H23.12Z"/><polygon class="cls-1" points="34.72 50.34 34.72 44.78 35.34 44.78 35.34 51.05 34.49 51.05 30.75 45.5 30.73 45.5 30.73 51.05 30.1 51.05 30.1 44.78 30.95 44.78 34.7 50.34 34.72 50.34"/><polygon class="cls-1" points="41.36 50.5 41.36 51.05 37.36 51.05 37.36 44.78 41.25 44.78 41.25 45.33 37.99 45.33 37.99 47.51 41.04 47.51 41.04 48.07 37.99 48.07 37.99 50.5 41.36 50.5"/><polygon class="cls-1" points="44.77 51.05 44.77 48.42 42.37 44.78 43.09 44.78 45.07 47.82 45.09 47.82 47.07 44.78 47.79 44.78 45.39 48.42 45.39 51.05 44.77 51.05"/><path class="cls-1" d="M12.68,24.25A5.2,5.2,0,0,1,8.48,22V16.33a5.07,5.07,0,0,1,4.2-2.16,5,5,0,0,1,0,10.08m1.6-15.53c-3,0-5.76.84-7.44,2.92H6.76c-.84-1.72-3-2.44-5-2.44A5,5,0,0,0,0,9.48l.24,5.2a1.8,1.8,0,0,1,.4,0c.88,0,1.76.76,1.76,2.8v20a3,3,0,0,0,6.08,0h0V27.25h.08a8.12,8.12,0,0,0,4.12,2.2,7.07,7.07,0,0,0,2.08.2c5-.24,9-4.64,9-10.44,0-6-4.28-10.48-9.48-10.48"/><path class="cls-1" d="M39.24,8.8A10,10,0,0,0,36.8,9a7.27,7.27,0,0,0-4.12,2.48H32.6V0H26.52V29.21H32.6V16.37a4.45,4.45,0,0,1,4-2.2c2.48,0,3.76,1.92,3.76,4.84v10.2h6.08v-9.6a22.32,22.32,0,0,0-.24-3.36c-.6-4.36-2.92-7.2-7-7.44"/><path class="cls-1" d="M61.62,8.72A6.5,6.5,0,0,0,55.5,12.2h-.08l-.12-3H49.66v20h6.08V16.37a4.45,4.45,0,0,1,4-2.2c2.48,0,3.76,1.92,3.76,4.84v10.2h6.08V19c0-6.16-2.68-10.28-8-10.28"/><path class="cls-1" d="M3.53,66H4.88l-.64-2.41h0Zm.3-3.12h.83l1.34,5H5.36L5,66.54H3.41L3,67.92H2.39Z"/><path class="cls-1" d="M6.46,64.17H7v.44H7a1,1,0,0,1,.91-.54c1,0,1,.75,1,1.19v2.66H8.34V65.33c0-.29,0-.76-.55-.76a.72.72,0,0,0-.74.76v2.59H6.46Z"/><path class="cls-1" d="M12.07,66h1.34l-.64-2.41h0Zm.3-3.12h.83l1.34,5H13.9l-.36-1.37h-1.6l-.37,1.37h-.64Z"/><path class="cls-1" d="M17.39,67.92h-.56v-.44h0a1,1,0,0,1-.91.54c-1,0-1-.75-1-1.19V64.17h.59v2.59c0,.29,0,.76.55.76a.72.72,0,0,0,.74-.76V64.17h.59Z"/><path class="cls-1" d="M19.75,65.27c0-.48-.13-.74-.55-.74a.54.54,0,0,0-.61.57c0,.44.46.52.92.68s.92.31.92,1.06A1.1,1.1,0,0,1,19.21,68a1.15,1.15,0,0,1-1.29-1.33h.59c0,.45.13.87.7.87a.59.59,0,0,0,.62-.62c0-.5-.46-.61-.92-.76S18,65.88,18,65.1s.55-1,1.2-1c1.09,0,1.13.76,1.14,1.2Z"/><path class="cls-1" d="M21.21,63.07h.59v1.09h.65v.46h-.65V67c0,.3.08.42.38.42a1.69,1.69,0,0,0,.26,0v.48A2.49,2.49,0,0,1,22,68c-.61,0-.76-.25-.76-.74V64.63h-.55v-.46h.55Z"/><path class="cls-1" d="M22.86,64.17h.59v.56h0c.17-.36.39-.66.81-.66a.59.59,0,0,1,.26,0v.57a1.69,1.69,0,0,0-.31,0,.83.83,0,0,0-.77.89v2.37h-.59Z"/><path class="cls-1" d="M26.69,65.87c-.22.23-.73.28-1,.44a.6.6,0,0,0-.29.59c0,.38.13.64.53.64a.76.76,0,0,0,.76-.71Zm-1.81-.57c0-.85.36-1.23,1.26-1.23,1.14,0,1.14.69,1.14,1.08v2.09c0,.15,0,.3.18.3a.21.21,0,0,0,.14,0v.42a2.24,2.24,0,0,1-.34,0c-.22,0-.5,0-.53-.48h0a1.06,1.06,0,0,1-.9.54c-.7,0-1-.42-1-1.09a1,1,0,0,1,.71-1l.79-.24c.43-.13.43-.25.43-.57s-.21-.55-.6-.55a.64.64,0,0,0-.64.74v0Z"/><rect class="cls-1" x="28.08" y="62.92" width="0.59" height="5"/><path class="cls-1" d="M29.41,67.92H30V64.17h-.59Zm0-4.32H30v-.67h-.59Z"/><path class="cls-1" d="M32.47,65.87c-.22.23-.73.28-1,.44a.6.6,0,0,0-.29.59c0,.38.13.64.53.64a.76.76,0,0,0,.76-.71Zm-1.81-.57c0-.85.36-1.23,1.26-1.23,1.14,0,1.14.69,1.14,1.08v2.09c0,.15,0,.3.18.3a.21.21,0,0,0,.14,0v.42A2.24,2.24,0,0,1,33,68c-.22,0-.5,0-.53-.48h0a1.06,1.06,0,0,1-.9.54c-.7,0-1-.42-1-1.09a1,1,0,0,1,.71-1l.79-.24c.43-.13.43-.25.43-.57s-.21-.55-.6-.55a.64.64,0,0,0-.64.74v0Z"/><path class="cls-1" d="M33.84,64.17h.56v.44h0a1,1,0,0,1,.91-.54c1,0,1,.75,1,1.19v2.66h-.59V65.33c0-.29,0-.76-.55-.76a.72.72,0,0,0-.74.76v2.59h-.59Z"/><path class="cls-1" d="M41.15,64.31c0-.53-.22-1-.83-1-.85,0-1,.94-1,2.09s.11,2.09,1,2.09.92-1,.92-1.68h-1v-.5H41.8v2.6h-.46v-.68h0a1.11,1.11,0,0,1-1.08.78c-1.3,0-1.53-1.25-1.53-2.6s.23-2.6,1.61-2.6a1.37,1.37,0,0,1,1.48,1.48Z"/><path class="cls-1" d="M44.49,66c0-.81-.12-1.51-.75-1.51S43,65.23,43,66s.12,1.51.72,1.51.75-.7.75-1.51m-.73-2c1.08,0,1.35.92,1.35,2s-.27,2-1.35,2-1.35-.92-1.35-2,.27-2,1.35-2"/><polygon class="cls-1" points="45.31 64.17 45.95 64.17 46.65 67.18 46.67 67.18 47.37 64.17 48.01 64.17 46.99 67.92 46.32 67.92 45.31 64.17"/><path class="cls-1" d="M50.21,65.65v-.2c0-.42-.13-.92-.65-.92s-.68.76-.68,1v.14Zm-1.36.46c0,.57,0,1.44.72,1.44.56,0,.64-.59.64-.87h.59A1.27,1.27,0,0,1,49.54,68c-.92,0-1.3-.64-1.3-1.92,0-.94.18-2,1.34-2s1.25,1,1.25,1.81v.24Z"/><path class="cls-1" d="M51.42,64.17H52v.56h0c.17-.36.39-.66.81-.66a.58.58,0,0,1,.26,0v.57a1.69,1.69,0,0,0-.31,0,.83.83,0,0,0-.77.89v2.37h-.59Z"/><path class="cls-1" d="M53.52,64.17h.56v.44h0a1,1,0,0,1,.91-.54c1,0,1,.75,1,1.19v2.66H55.4V65.33c0-.29,0-.76-.55-.76a.72.72,0,0,0-.74.76v2.59h-.59Z"/><path class="cls-1" d="M56.72,64.17h.56v.44h0a1,1,0,0,1,.91-.54.74.74,0,0,1,.81.6,1,1,0,0,1,.89-.6c1,0,1,.75,1,1.19v2.66h-.59V65.33c0-.29,0-.76-.5-.76a.69.69,0,0,0-.7.76v2.59h-.59V65.33c0-.29,0-.76-.5-.76a.69.69,0,0,0-.7.76v2.59h-.59Z"/><path class="cls-1" d="M63.5,65.65v-.2c0-.42-.13-.92-.65-.92s-.68.76-.68,1v.14Zm-1.36.46c0,.57,0,1.44.72,1.44.56,0,.64-.59.64-.87h.59A1.27,1.27,0,0,1,62.82,68c-.92,0-1.3-.64-1.3-1.92,0-.94.18-2,1.34-2s1.25,1,1.25,1.81v.24Z"/><path class="cls-1" d="M64.71,64.17h.56v.44h0a1,1,0,0,1,.91-.54c1,0,1,.75,1,1.19v2.66h-.59V65.33c0-.29,0-.76-.55-.76a.72.72,0,0,0-.74.76v2.59h-.59Z"/><path class="cls-1" d="M68.12,63.07h.59v1.09h.65v.46h-.65V67c0,.3.08.42.38.42a1.67,1.67,0,0,0,.26,0v.48a2.49,2.49,0,0,1-.48,0c-.61,0-.76-.25-.76-.74V64.63h-.55v-.46h.55Z"/><rect class="cls-1" x="71.46" y="62.92" width="0.62" height="5"/><path class="cls-1" d="M72.87,64.17h.56v.44h0a1,1,0,0,1,.91-.54c1,0,1,.75,1,1.19v2.66h-.59V65.33c0-.29,0-.76-.55-.76a.72.72,0,0,0-.74.76v2.59h-.59Z"/><path class="cls-1" d="M76.06,67.92h.59V64.17h-.59Zm0-4.32h.59v-.67h-.59Z"/><path class="cls-1" d="M77.63,63.07h.59v1.09h.65v.46h-.65V67c0,.3.08.42.38.42a1.69,1.69,0,0,0,.26,0v.48a2.49,2.49,0,0,1-.48,0c-.61,0-.76-.25-.76-.74V64.63h-.55v-.46h.55Z"/><path class="cls-1" d="M79.3,67.92h.59V64.17H79.3Zm0-4.32h.59v-.67H79.3Z"/><path class="cls-1" d="M82.36,65.87c-.22.23-.73.28-1,.44a.6.6,0,0,0-.29.59c0,.38.13.64.53.64a.76.76,0,0,0,.76-.71Zm-1.81-.57c0-.85.36-1.23,1.26-1.23,1.14,0,1.14.69,1.14,1.08v2.09c0,.15,0,.3.18.3a.21.21,0,0,0,.14,0v.42a2.29,2.29,0,0,1-.34,0c-.22,0-.5,0-.53-.48h0a1.06,1.06,0,0,1-.9.54c-.7,0-1-.42-1-1.09a1,1,0,0,1,.71-1l.79-.24c.43-.13.43-.25.43-.57s-.21-.55-.6-.55a.64.64,0,0,0-.64.74v0Z"/><path class="cls-1" d="M83.91,63.07h.59v1.09h.65v.46H84.5V67c0,.3.08.42.38.42a1.69,1.69,0,0,0,.26,0v.48a2.5,2.5,0,0,1-.48,0c-.61,0-.76-.25-.76-.74V64.63h-.55v-.46h.55Z"/><path class="cls-1" d="M85.58,67.92h.59V64.17h-.59Zm0-4.32h.59v-.67h-.59Z"/><polygon class="cls-1" points="86.63 64.17 87.28 64.17 87.97 67.18 87.99 67.18 88.69 64.17 89.33 64.17 88.32 67.92 87.65 67.92 86.63 64.17"/><path class="cls-1" d="M91.54,65.65v-.2c0-.42-.13-.92-.65-.92s-.69.76-.69,1v.14Zm-1.36.46c0,.57,0,1.44.72,1.44.56,0,.64-.59.64-.87h.59A1.27,1.27,0,0,1,90.86,68c-.92,0-1.3-.64-1.3-1.92,0-.94.18-2,1.34-2s1.25,1,1.25,1.81v.24Z"/></g></g></svg>