<svg xmlns="http://www.w3.org/2000/svg" viewBox="0 0 92.34 63.32"><defs><style>.cls-1{fill:#fff;}</style></defs><title>tad</title><g id="Layer_2" data-name="Layer 2"><g id="Layer_1-2" data-name="Layer 1"><path class="cls-1" d="M34.56.71h0A5.26,5.26,0,0,0,33.13.14h0L32.85.08h-.08l-.12,0-.14,0h-.08l-.22,0H5.32a5.32,5.32,0,0,0-.05,10.63h8V31.91c3.4-15.36,10.63-21.27,10.63-21.27h8A5.32,5.32,0,0,0,34.56.71"/><path class="cls-1" d="M23.93,10.64s-7.36,12.16-8,25.83a5.32,5.32,0,0,0,8-4.56Z"/><path class="cls-1" d="M73.8,26.59h0Zm.26,0h0c16.07-.17,16.82-16,16.82-16a16.37,16.37,0,0,0-3.49-5.17C82.07.17,74.72,0,73.79,0H60.5a5.32,5.32,0,0,0,0,10.64H73.81s3.83.13,6.07,2.36c1.28,1.27,1.9,3.11,1.9,5.62a8.62,8.62,0,0,1-1.12,4.64,6.13,6.13,0,0,1-2.36,2.13,11.23,11.23,0,0,1-4.52,1.21"/><path class="cls-1" d="M64.26,29.52l-2-4h0L53,7,51,2.94a5.32,5.32,0,0,0-9.51,0L28.24,29.37a5.32,5.32,0,0,0,9.29,5.18c0-.08.1-.17.15-.27l8.53-17.07L50.09,25l4.66,9.31a5.56,5.56,0,0,0,.37.63l0,0,.2.27,0,0,.21.25,0,0,.12.13h0a5.31,5.31,0,0,0,8.5-6.14"/><path class="cls-1" d="M92.23,16.22C90.11,21.09,85.58,26.59,74,26.59H64.15L65.37,29a6.54,6.54,0,0,1-2.08,8.18H73.75a21.66,21.66,0,0,0,8.18-1.81,17.81,17.81,0,0,0,5.26-3.5l.15-.15A16.37,16.37,0,0,0,91,26.21a18.88,18.88,0,0,0,1.15-4.39,22.94,22.94,0,0,0,.22-3.2,23.41,23.41,0,0,0-.12-2.39"/><path class="cls-1" d="M12.35,48.41A3.56,3.56,0,0,1,16,44.81a3.39,3.39,0,0,1,3.19,2.08c.05.14,0,.23-.16.23h-.35a.25.25,0,0,1-.24-.15A2.66,2.66,0,0,0,16,45.48a2.93,2.93,0,1,0,0,5.86,2.66,2.66,0,0,0,2.44-1.48.25.25,0,0,1,.24-.15H19c.14,0,.22.09.17.21A3.4,3.4,0,0,1,16,52a3.56,3.56,0,0,1-3.66-3.61"/><path class="cls-1" d="M24.69,51.44v.26a.18.18,0,0,1-.2.2H21a.18.18,0,0,1-.2-.2V45.13a.18.18,0,0,1,.2-.2h.3a.18.18,0,0,1,.2.2v6.12h3a.18.18,0,0,1,.2.2"/><path class="cls-1" d="M30,51.44v.26a.18.18,0,0,1-.2.2H26.21a.18.18,0,0,1-.2-.2V45.13a.18.18,0,0,1,.2-.2h3.54a.18.18,0,0,1,.2.2v.26a.18.18,0,0,1-.2.2h-3v2.47H29.5a.18.18,0,0,1,.2.2v.26a.18.18,0,0,1-.2.2H26.71v2.53H29.8a.18.18,0,0,1,.2.2"/><path class="cls-1" d="M33.53,51.74,31.1,45.16c-.05-.14,0-.23.17-.23h.32a.22.22,0,0,1,.23.16L34,51l2.13-5.95a.22.22,0,0,1,.23-.16h.32c.14,0,.22.09.17.23l-2.43,6.59a.24.24,0,0,1-.23.16h-.38a.24.24,0,0,1-.23-.16"/><path class="cls-1" d="M42.11,51.44v.26a.18.18,0,0,1-.2.2H38.33a.18.18,0,0,1-.2-.2V45.13a.18.18,0,0,1,.2-.2h3.54a.18.18,0,0,1,.2.2v.26a.18.18,0,0,1-.2.2h-3v2.47h2.79a.18.18,0,0,1,.2.2v.26a.18.18,0,0,1-.2.2H38.83v2.53h3.09a.18.18,0,0,1,.2.2"/><path class="cls-1" d="M44.29,48.45h1.79a1.44,1.44,0,0,0,0-2.87H44.29Zm4.55,3.45h-.4a.3.3,0,0,1-.25-.11l-2.35-2.68H44.29V51.7a.18.18,0,0,1-.2.2h-.3a.18.18,0,0,1-.2-.2V45.13a.18.18,0,0,1,.2-.2h2.29A2.09,2.09,0,0,1,46.64,49L49,51.65c.11.13.06.25-.11.25"/><path class="cls-1" d="M53.46,44.93h.3a.18.18,0,0,1,.2.2V51.7a.18.18,0,0,1-.2.2h-.3a.18.18,0,0,1-.2-.2V45.13a.18.18,0,0,1,.2-.2"/><path class="cls-1" d="M61.49,48.41a2.66,2.66,0,0,0-2.61-2.83H56.69v5.66h2.19a2.66,2.66,0,0,0,2.61-2.83m.68,0a3.33,3.33,0,0,1-3.29,3.49H56.19a.18.18,0,0,1-.2-.2V45.13a.18.18,0,0,1,.2-.2h2.69a3.33,3.33,0,0,1,3.29,3.49"/><path class="cls-1" d="M67.81,51.44v.26a.18.18,0,0,1-.2.2H64a.18.18,0,0,1-.2-.2V45.13a.18.18,0,0,1,.2-.2h3.54a.18.18,0,0,1,.2.2v.26a.18.18,0,0,1-.2.2h-3v2.47h2.79a.18.18,0,0,1,.2.2v.26a.18.18,0,0,1-.2.2H64.52v2.53h3.09a.18.18,0,0,1,.2.2"/><path class="cls-1" d="M73.3,49.53l-1.41-3.74-1.41,3.74Zm1.54,2.14c0,.14,0,.23-.16.23h-.32a.24.24,0,0,1-.23-.16l-.59-1.55H70.23l-.59,1.55a.24.24,0,0,1-.23.16H69.1c-.15,0-.21-.09-.16-.23l2.53-6.59a.24.24,0,0,1,.23-.16h.38a.24.24,0,0,1,.23.16Z"/><path class="cls-1" d="M75.75,50.09a.17.17,0,0,1,.19-.21h.31a.19.19,0,0,1,.2.2c.1.83.8,1.27,1.73,1.27s1.55-.46,1.55-1.21-.74-1.09-1.56-1.39c-1.06-.4-2.22-.76-2.22-2.11A1.93,1.93,0,0,1,78,44.81a2,2,0,0,1,2.17,1.78.17.17,0,0,1-.19.21h-.31a.18.18,0,0,1-.2-.19A1.33,1.33,0,0,0,78,45.48c-.77,0-1.4.41-1.4,1.15s.7,1.11,1.53,1.42c1.06.41,2.25.8,2.25,2.08A2,2,0,0,1,78.18,52a2.21,2.21,0,0,1-2.43-1.93"/><path class="cls-1" d="M5.15,59.71A3.55,3.55,0,0,1,8.8,56.1,3.4,3.4,0,0,1,12,58.27a.17.17,0,0,1-.17.24H11.3a.26.26,0,0,1-.25-.16A2.44,2.44,0,0,0,8.8,57a2.72,2.72,0,1,0,0,5.43,2.44,2.44,0,0,0,2.25-1.36.26.26,0,0,1,.25-.16h.56c.15,0,.23.09.18.22a3.4,3.4,0,0,1-3.24,2.2,3.55,3.55,0,0,1-3.65-3.61"/><path class="cls-1" d="M18.37,56.43V63a.19.19,0,0,1-.21.21h-.5a.19.19,0,0,1-.21-.21V60h-3V63a.19.19,0,0,1-.21.21h-.5a.19.19,0,0,1-.21-.21V56.43a.19.19,0,0,1,.21-.21h.5a.19.19,0,0,1,.21.21v2.74h3V56.43a.19.19,0,0,1,.21-.21h.5a.19.19,0,0,1,.21.21"/><path class="cls-1" d="M23.9,60.77l-1.24-3.46-1.24,3.46Zm1.6,2.43H25a.24.24,0,0,1-.24-.17l-.5-1.39H21.11L20.61,63a.24.24,0,0,1-.24.17h-.55c-.16,0-.22-.09-.17-.24l2.43-6.56a.25.25,0,0,1,.24-.17H23a.25.25,0,0,1,.24.17L25.67,63c.05.15,0,.24-.17.24"/><path class="cls-1" d="M31.07,56.22h.5a.19.19,0,0,1,.21.21V63a.19.19,0,0,1-.21.21H31.2a.27.27,0,0,1-.26-.14l-3.08-5V63a.19.19,0,0,1-.21.21h-.5a.19.19,0,0,1-.21-.21V56.43a.19.19,0,0,1,.21-.21h.37a.27.27,0,0,1,.26.14l3.08,5V56.43a.19.19,0,0,1,.21-.21"/><path class="cls-1" d="M40.29,59.82V63a.19.19,0,0,1-.21.21H39.6a.19.19,0,0,1-.21-.21v-.8a2.87,2.87,0,0,1-2.46,1.14,3.61,3.61,0,0,1,0-7.23,3.41,3.41,0,0,1,3.23,2.13c.05.15,0,.24-.17.24h-.56a.27.27,0,0,1-.25-.16A2.47,2.47,0,0,0,37,57a2.73,2.73,0,0,0,0,5.46,2.14,2.14,0,0,0,2.4-2h-2a.19.19,0,0,1-.21-.21v-.42a.19.19,0,0,1,.21-.21h2.74a.19.19,0,0,1,.21.21"/><path class="cls-1" d="M42.35,56.22h.5a.19.19,0,0,1,.21.21V63a.19.19,0,0,1-.21.21h-.5a.19.19,0,0,1-.21-.21V56.43a.19.19,0,0,1,.21-.21"/><path class="cls-1" d="M49.14,56.22h.5a.19.19,0,0,1,.21.21V63a.19.19,0,0,1-.21.21h-.37a.27.27,0,0,1-.26-.14l-3.08-5V63a.19.19,0,0,1-.21.21h-.5A.19.19,0,0,1,45,63V56.43a.19.19,0,0,1,.21-.21h.37a.27.27,0,0,1,.26.14l3.08,5V56.43a.19.19,0,0,1,.21-.21"/><path class="cls-1" d="M58.36,59.82V63a.19.19,0,0,1-.21.21h-.47a.19.19,0,0,1-.21-.21v-.8A2.87,2.87,0,0,1,55,63.32a3.61,3.61,0,0,1,.05-7.23,3.41,3.41,0,0,1,3.23,2.13c.05.15,0,.24-.17.24h-.56a.26.26,0,0,1-.25-.16A2.47,2.47,0,0,0,55.05,57a2.73,2.73,0,0,0,0,5.46,2.14,2.14,0,0,0,2.4-2h-2a.19.19,0,0,1-.21-.21v-.42a.19.19,0,0,1,.21-.21h2.74a.19.19,0,0,1,.21.21"/><path class="cls-1" d="M67,62.53V63a.19.19,0,0,1-.21.21H63.31A.19.19,0,0,1,63.1,63V56.43a.19.19,0,0,1,.21-.21h.5a.19.19,0,0,1,.21.21v5.89H66.8a.19.19,0,0,1,.21.21"/><path class="cls-1" d="M68.48,56.22H69a.19.19,0,0,1,.21.21V63a.19.19,0,0,1-.21.21h-.5a.19.19,0,0,1-.21-.21V56.43a.19.19,0,0,1,.21-.21"/><path class="cls-1" d="M72.77,63l-2.33-6.56c-.05-.15,0-.24.18-.24h.55a.23.23,0,0,1,.24.17l1.95,5.69,1.95-5.69a.23.23,0,0,1,.24-.17h.55c.15,0,.23.09.18.24L73.94,63a.24.24,0,0,1-.24.17H73a.24.24,0,0,1-.24-.17"/><path class="cls-1" d="M81.57,62.53V63a.19.19,0,0,1-.21.21H77.74a.19.19,0,0,1-.21-.21V56.43a.19.19,0,0,1,.21-.21h3.56a.19.19,0,0,1,.21.21v.45a.19.19,0,0,1-.21.21H78.45v2.15h2.6a.19.19,0,0,1,.21.21v.44a.19.19,0,0,1-.21.21h-2.6v2.21h2.9a.19.19,0,0,1,.21.21"/><path class="cls-1" d="M82.6,61.35a.18.18,0,0,1,.2-.22h.51a.2.2,0,0,1,.22.21c.09.71.69,1.08,1.54,1.08s1.37-.41,1.37-1-.68-1-1.45-1.24c-1-.38-2.23-.76-2.23-2.15a2,2,0,0,1,2.16-1.89A2.06,2.06,0,0,1,87.15,58a.18.18,0,0,1-.2.22h-.51a.2.2,0,0,1-.21-.2,1.17,1.17,0,0,0-1.31-1c-.7,0-1.24.37-1.24,1s.63,1,1.4,1.28c1,.39,2.28.77,2.28,2.12a2.07,2.07,0,0,1-2.29,1.94,2.23,2.23,0,0,1-2.47-2"/></g></g></svg>