<svg xmlns="http://www.w3.org/2000/svg" viewBox="0 0 137.94 53.95"><defs><style>.cls-1{fill:#fff;}</style></defs><title>wsu</title><g id="Layer_2" data-name="Layer 2"><g id="Layer_1-2" data-name="Layer 1"><path class="cls-1" d="M29.64,22.17V16.86c0-.47-.28-.69-1.4-.73v-.28h3.9v.28c-1.17,0-1.28.23-1.28.73v5c0,1.75,1.14,2.36,2.55,2.36a2.26,2.26,0,0,0,1.64-.62,2.41,2.41,0,0,0,.69-1.92V17.9c0-1.21-.33-1.63-1.59-1.81v-.24H37.5v.24c-1.17.21-1.35.6-1.35,1.81V22c0,1.53-1.09,2.77-3.23,2.77s-3.28-1-3.28-2.57"/><path class="cls-1" d="M40.08,17.16h0v5.3c0,1.22.21,1.63,1.48,1.81v.26H38.21v-.26c1.18-.19,1.45-.59,1.45-1.81V17.29c0-.63-.37-1.14-1.45-1.17v-.28h2.45l5,6.78h0V17.9c0-1.21-.33-1.63-1.59-1.81v-.24h3.36v.24c-1.18.21-1.36.6-1.36,1.81v6.84h-.4Z"/><path class="cls-1" d="M48.29,24.23c1.14,0,1.41-.26,1.41-.73V16.86c0-.47-.27-.69-1.41-.73v-.28h4v.28c-1.14,0-1.41.26-1.41.73V23.5c0,.47.27.69,1.41.73v.3h-4Z"/><path class="cls-1" d="M54.53,17.23c-.28-.74-.49-.95-1.46-1.13v-.26H56.9v.28c-1.17.06-1.35.31-1.12.94L58,23.13H58l2-5.28c.45-1.22.28-1.57-.9-1.76v-.24h3v.24c-.87.18-1.18.6-1.68,1.89l-2.67,6.78h-.44Z"/><path class="cls-1" d="M62.66,24.23c1.12,0,1.38-.26,1.38-.73V16.86c0-.47-.27-.69-1.38-.73v-.28h7.05l0,2.57h-.28c-.54-1.57-1-2.22-2.44-2.22H65.27v3.63H66c1,0,1.46-.22,1.8-1.59h.26v3.57h-.26c-.33-1.37-.78-1.6-1.8-1.6h-.78v4H67c1.72,0,2.28-.78,2.85-2.41h.28l-.06,2.77H62.66Z"/><path class="cls-1" d="M74,23.5c0,.5.19.69,1.37.73v.3h-4v-.3c1.12,0,1.38-.26,1.38-.73V16.86c0-.47-.27-.69-1.38-.73v-.28H75c2.59,0,3.5,1,3.5,2.1s-.68,1.89-2.42,2.21v0c1.72.12,2,.85,2.19,2l.14.89c.15,1,.42,1.14,1.44,1.17v.28a3.84,3.84,0,0,1-.86.1c-1.51,0-1.78-.42-1.9-1.6L77,21.91c-.13-1.27-.56-1.55-2-1.55H74Zm1.1-3.5c1.72,0,2.1-.78,2.1-2s-.55-1.78-2.24-1.78H74V20Z"/><path class="cls-1" d="M80.81,21.82h.3c.68,1.57,1.5,2.54,2.76,2.54a1.73,1.73,0,0,0,1.9-1.67c0-1.08-.73-1.46-2.32-2C82.25,20.24,81,19.9,81,18.28a2.65,2.65,0,0,1,2.91-2.63,4.74,4.74,0,0,1,1.76.33l.41-.41h.22v2.64H86C85.48,16.81,84.71,16,83.67,16A1.54,1.54,0,0,0,82,17.6c0,1.05.8,1.39,2.21,1.86,1.19.41,2.44.81,2.44,2.44a2.7,2.7,0,0,1-3,2.82,4.87,4.87,0,0,1-2-.45l-.72.5h-.23Z"/><path class="cls-1" d="M88,24.23c1.14,0,1.41-.26,1.41-.73V16.86c0-.47-.27-.69-1.41-.73v-.28h4v.28c-1.14,0-1.41.26-1.41.73V23.5c0,.47.27.69,1.41.73v.3H88Z"/><path class="cls-1" d="M94.64,24.23c1.14,0,1.49-.26,1.49-.73V16.2H95.5c-1.09,0-1.63.73-2.26,2.3H93L93,15.84h7.41l.08,2.64h-.28C99.69,17,99.12,16.2,98,16.2h-.64v7.3c0,.47.35.69,1.49.73v.3H94.64Z"/><path class="cls-1" d="M107.41,17.59c.59-1,.58-1.33-.62-1.5v-.24h2.94v.24c-.79.15-1.15.39-1.81,1.49l-1.86,3.13v2.8c0,.47.26.69,1.41.73v.3h-4v-.3c1.15,0,1.41-.26,1.41-.73V20.88L102.61,17a1.61,1.61,0,0,0-1.35-.92v-.26H105v.28c-1.19.06-1.28.37-1,.95l1.8,3.21Z"/><polygon class="cls-1" points="0 0.15 2.56 0.15 4.54 7.88 6.69 0.12 8.8 0.12 10.96 7.88 12.92 0.15 15.44 0.15 12.08 11.95 9.86 11.95 7.71 4.49 5.57 11.95 3.35 11.95 0 0.15"/><polygon class="cls-1" points="16.67 0.15 24.23 0.15 24.23 2.35 19.08 2.35 19.08 4.88 23.61 4.88 23.61 7.07 19.08 7.07 19.08 9.69 24.29 9.69 24.29 11.88 16.67 11.88 16.67 0.15"/><path class="cls-1" d="M25.28,10.31l1.44-1.79a4.5,4.5,0,0,0,2.92,1.32c.94,0,1.51-.47,1.51-1.16v0c0-.59-.34-1-2-1.59-2.08-.8-3.37-1.59-3.37-3.6v0c0-2,1.58-3.44,3.84-3.44a5.58,5.58,0,0,1,3.79,1.44L32,3.28a4.11,4.11,0,0,0-2.5-1.09c-.84,0-1.36.42-1.36,1v0c0,.67.4,1,2.23,1.74,2,.8,3.15,1.68,3.15,3.5v0c0,2.18-1.66,3.52-3.94,3.52a6.3,6.3,0,0,1-4.34-1.73"/><polygon class="cls-1" points="37.26 2.4 34.31 2.4 34.31 0.15 42.63 0.15 42.63 2.4 39.67 2.4 39.67 11.88 37.26 11.88 37.26 2.4"/><polygon class="cls-1" points="43.87 0.15 51.43 0.15 51.43 2.35 46.29 2.35 46.29 4.88 50.81 4.88 50.81 7.07 46.29 7.07 46.29 9.69 51.5 9.69 51.5 11.88 43.87 11.88 43.87 0.15"/><path class="cls-1" d="M53.07.15h4.41a4.36,4.36,0,0,1,3.18,1.12,3.71,3.71,0,0,1,1,2.71v.07a3.54,3.54,0,0,1-2.18,3.47L62,11.88H59.19L57,8H55.5v3.85H53.07ZM57.3,5.88a1.69,1.69,0,0,0,1.91-1.76v0c0-1.17-.72-1.76-2-1.76H55.5V5.88Z"/><polygon class="cls-1" points="63.4 0.15 65.62 0.15 70.11 6.99 70.11 0.15 72.5 0.15 72.5 11.88 70.42 11.88 65.78 4.79 65.78 11.88 63.4 11.88 63.4 0.15"/><path class="cls-1" d="M77.74,10.31l1.44-1.79A4.5,4.5,0,0,0,82.1,9.84c.94,0,1.51-.47,1.51-1.16v0c0-.59-.34-1-2-1.59-2.08-.8-3.37-1.59-3.37-3.6v0c0-2,1.58-3.44,3.84-3.44a5.58,5.58,0,0,1,3.79,1.44L84.5,3.28A4.11,4.11,0,0,0,82,2.2c-.84,0-1.36.42-1.36,1v0c0,.67.4,1,2.23,1.74,2,.8,3.15,1.68,3.15,3.5v0C86,10.69,84.36,12,82.08,12a6.3,6.3,0,0,1-4.34-1.73"/><polygon class="cls-1" points="90.14 7.26 86.32 0.15 89.07 0.15 91.38 4.76 93.71 0.15 96.39 0.15 92.57 7.22 92.57 11.88 90.14 11.88 90.14 7.26"/><path class="cls-1" d="M97.62.15h3.79c3.4,0,5.6,2.35,5.6,5.78v.15c0,3.44-2.2,5.8-5.6,5.8H97.62ZM100,2.35V9.69h1.34c1.84,0,3.1-1.29,3.1-3.62V6c0-2.33-1.26-3.64-3.1-3.64Z"/><polygon class="cls-1" points="108.41 0.15 110.64 0.15 115.13 6.99 115.13 0.15 117.51 0.15 117.51 11.88 115.43 11.88 110.79 4.79 110.79 11.88 108.41 11.88 108.41 0.15"/><polygon class="cls-1" points="119.37 0.15 126.93 0.15 126.93 2.35 121.78 2.35 121.78 4.88 126.31 4.88 126.31 7.07 121.78 7.07 121.78 9.69 127 9.69 127 11.88 119.37 11.88 119.37 0.15"/><polygon class="cls-1" points="131.68 7.26 127.86 0.15 130.61 0.15 132.92 4.76 135.25 0.15 137.94 0.15 134.11 7.22 134.11 11.88 131.68 11.88 131.68 7.26"/><path class="cls-1" d="M61,34.34v11.8c0,4.33,7.84,7.81,7.84,7.81s7.84-3.48,7.84-7.81V34.34ZM72.52,48.46a7,7,0,0,0-2.05-.74l-1.62-6.78-1.62,6.78a7,7,0,0,0-2.06.74l-2.6-11H64.2l2,8.23,2-8.23h1.38l2,8.23,1.94-8.23h1.62Z"/></g></g></svg>